<?xml version="1.0" encoding="utf-8"?>
<!-- Generator: Adobe Illustrator 24.0.0, SVG Export Plug-In . SVG Version: 6.00 Build 0)  -->
<svg version="1.1" xmlns="http://www.w3.org/2000/svg" xmlns:xlink="http://www.w3.org/1999/xlink" x="0px" y="0px"
	 viewBox="0 0 350 40" style="enable-background:new 0 0 350 40;" xml:space="preserve">
<style type="text/css">
	.st0{fill:none;stroke:#B2A1A1;stroke-miterlimit:10;}
	.st1{fill:none;}
	.st2{fill:#FFFFFF;}
	.st3{fill:#EC0089;}
	.st4{fill:#04A7A0;}
</style>
<g id="Layer_2">
	
		<image style="overflow:visible;" width="1080" height="1350" xlink:href="AjzFlw8.jpg"  transform="matrix(1 0 0 1 -1793.853 277.9078)">
	</image>
</g>
<g id="Layer_1">
	<rect x="-1661.3" y="-243.8" class="st0" width="38.5" height="10"/>
	<g>
		<circle class="st0" cx="-1440.3" cy="-190.3" r="44.5"/>
		<circle class="st0" cx="-1440.3" cy="-190.3" r="34.5"/>
		<path class="st0" d="M-1540.7-223.8h-32.1v0c0-5,4-9,9-9h14.1C-1544.7-232.8-1540.7-228.8-1540.7-223.8L-1540.7-223.8z"/>
		<rect x="-1525.8" y="-232" class="st0" width="27.6" height="10"/>
		
			<rect x="-1556.4" y="-197.2" transform="matrix(-1.836970e-16 1 -1 -1.836970e-16 -1713.0549 1328.5769)" class="st0" width="71.2" height="10"/>
		
			<rect x="-1606.9" y="10.5" transform="matrix(-1.836970e-16 1 -1 -1.836970e-16 -1552.2914 1583.3295)" class="st0" width="78.2" height="10"/>
		
			<rect x="-1440.9" y="8.5" transform="matrix(-1.836970e-16 1 -1 -1.836970e-16 -1385.4807 1412.5248)" class="st0" width="83.8" height="10"/>
		
			<rect x="-1366.9" y="-199.3" transform="matrix(-1.836970e-16 1 -1 -1.836970e-16 -1523.4972 1134.8599)" class="st0" width="75.4" height="10"/>
		<rect x="-1525.8" y="-196" class="st0" width="27.6" height="10"/>
		<rect x="-1525.8" y="-157.9" class="st0" width="27.6" height="10"/>
		<rect x="-1534.6" y="-28.7" class="st0" width="27.6" height="10"/>
		
			<rect x="-1565.2" y="6.1" transform="matrix(-1.836970e-16 1 -1 -1.836970e-16 -1518.5409 1540.6624)" class="st0" width="71.2" height="10"/>
		<rect x="-1534.6" y="7.3" class="st0" width="27.6" height="10"/>
		<rect x="-1534.6" y="45.4" class="st0" width="27.6" height="10"/>
		<rect x="-1572.8" y="-28" class="st0" width="25.4" height="8.8"/>
		
			<rect x="-1472.2" y="10.9" transform="matrix(-1.836970e-16 1 -1 -1.836970e-16 -1416.842 1448.717)" class="st0" width="78.9" height="10"/>
		<rect x="-1450.1" y="-28" class="st0" width="34.6" height="8.8"/>
		
			<rect x="-1325.4" y="8.6" transform="matrix(-1.836970e-16 1 -1 -1.836970e-16 -1270.0358 1297.2445)" class="st0" width="83.6" height="10"/>
		<rect x="-1288.6" y="46.6" class="st0" width="26" height="8.8"/>
		<rect x="-1572.8" y="8.9" class="st0" width="25.4" height="8.8"/>
		<rect x="-1573.9" y="148.8" class="st0" width="33.3" height="8.8"/>
		
			<rect x="-1577.6" y="91.2" transform="matrix(-1.836970e-16 1 -1 -1.836970e-16 -1472.8224 1664.0616)" class="st0" width="18.3" height="8.8"/>
		<path class="st0" d="M-1564.2,140.9v11.5h-9.7v-13.4c0-2.7,0.9-5.3,2.5-7.3l18.6-23.7c1.6-2,2.5-4.5,2.5-7.1V86.5h8.8v17.4
			c0,2.6-0.9,5.1-2.4,7.1l-17.8,22.7C-1563.3,135.7-1564.2,138.3-1564.2,140.9z"/>
		<rect x="-1334.2" y="-157.9" class="st0" width="25.4" height="10"/>
		<rect x="-1550.7" y="-223.8" class="st0" width="10" height="22"/>
		<path class="st0" d="M-1540.7-157.4h-32.1v0c0,5,4,9,9,9h14.1C-1544.7-148.4-1540.7-152.5-1540.7-157.4L-1540.7-157.4z"/>
		<rect x="-1572.8" y="-179.4" class="st0" width="10" height="22"/>
		<path class="st0" d="M-1550.7-178.2v20.8h10v-23.9c0-2.9-1.4-5.7-3.8-7.4l-16.2-11.6c-1.3-0.9-2.1-2.4-2.1-4v-19.5h-10v22.4
			c0,2.4,1.1,4.6,3,6.1l17.4,13.5C-1551.4-180.9-1550.7-179.6-1550.7-178.2z"/>
		<path class="st0" d="M-1460.6-19.6h-32.1v0c0-5,4-9,9-9h14.1C-1464.7-28.6-1460.6-24.6-1460.6-19.6L-1460.6-19.6z"/>
		<rect x="-1470.6" y="-19.6" class="st0" width="10" height="22"/>
		<path class="st0" d="M-1460.6,46.8h-32.1v0c0,5,4,9,9,9h14.1C-1464.7,55.8-1460.6,51.8-1460.6,46.8L-1460.6,46.8z"/>
		<rect x="-1492.7" y="24.8" class="st0" width="10" height="22"/>
		<path class="st0" d="M-1470.6,26v20.8h10V22.9c0-2.9-1.4-5.7-3.8-7.4l-16.2-11.6c-1.3-0.9-2.1-2.4-2.1-4v-19.5h-10V2.8
			c0,2.4,1.1,4.6,3,6.1l17.4,13.5C-1471.3,23.3-1470.6,24.6-1470.6,26z"/>
		<path class="st0" d="M-1563.8-130.1v49.6v21.6v1.5c0,1.1-0.9,2-2,2h-9.5v9h9.5c6.6,0,12-5.4,12-12v-0.5v-21.6v-49.6H-1563.8z"/>
		<path class="st0" d="M-1358.3-232v50.5v17.8v4.5c0,1.1-0.9,2-2,2h-10.6c-1.1,0-2-0.9-2-2v-22.3h-0.1V-232h-10v69.2h0.1v2.6
			c0,6.6,5.4,12,12,12h10.6c6.6,0,12-5.4,12-12v-3.5v-17.8V-232H-1358.3z"/>
		<path class="st0" d="M-1529.1-130.1l-13.4,83.7h8.8l2.2-14.1h16.1l2.2,14.1h8.8l-13.4-83.7H-1529.1z M-1530-69.1l6.7-41.9
			l6.7,41.9H-1530z"/>
		<path class="st0" d="M-1325-28.2l-13.4,83.7h8.8l2.2-14.1h16.1l2.2,14.1h8.8l-13.4-83.7H-1325z M-1326,32.7l6.7-41.9l6.7,41.9
			H-1326z"/>
		<polygon class="st0" points="-1464.4,-130.1 -1493.6,-130.1 -1493.6,-121 -1474.1,-121 -1493.6,-55.4 -1493.6,-46.4 
			-1464.4,-46.4 -1464.4,-55.4 -1484.8,-55.4 -1464.4,-121 		"/>
		<polygon class="st0" points="-1424.9,-130.1 -1454,-130.1 -1454,-121 -1434.6,-121 -1454,-55.4 -1454,-46.4 -1424.9,-46.4 
			-1424.9,-55.4 -1445.3,-55.4 -1424.9,-121 		"/>
		<g>
			<polyline class="st1" points="-1369.6,-5.7 -1362.9,36.2 -1356.3,-5.7 			"/>
			<path class="st1" d="M-1364.1,1.2"/>
			<polygon class="st0" points="-1362.9,36.2 -1373.2,-28.5 -1382,-28.5 -1368.7,55.2 -1357.2,55.2 -1343.8,-28.5 -1352.7,-28.5 			
				"/>
		</g>
		<path class="st0" d="M-1481.7,71.3c-24.6,0-44.5,19.9-44.5,44.5s19.9,44.5,44.5,44.5c24.6,0,44.5-19.9,44.5-44.5
			S-1457.2,71.3-1481.7,71.3z M-1481.7,150.3c-19,0-34.5-15.5-34.5-34.5s15.5-34.5,34.5-34.5s34.5,15.5,34.5,34.5
			S-1462.7,150.3-1481.7,150.3z"/>
		<g>
			<path class="st1" d="M-1553.5,82.5h-7.3c-1.9,0-3.4,1.5-3.4,3.4v8.9h14.1v-8.9C-1550.1,84-1551.6,82.5-1553.5,82.5z"/>
			<path class="st0" d="M-1564.2,85.9c0-1.9,1.5-3.4,3.4-3.4h7.3c1.9,0,3.4,1.5,3.4,3.4v8.9h8.7v-9.7c0-6.6-5.4-12-12-12h-7.4
				c-6.6,0-12,5.4-12,12v9.7h8.7V85.9z"/>
		</g>
		<rect x="-1425.6" y="148.8" class="st0" width="33.3" height="8.8"/>
		
			<rect x="-1429.3" y="91.2" transform="matrix(-1.836970e-16 1 -1 -1.836970e-16 -1324.5542 1515.7936)" class="st0" width="18.3" height="8.8"/>
		<path class="st0" d="M-1415.9,140.9v11.5h-9.7v-13.4c0-2.7,0.9-5.3,2.5-7.3l18.6-23.7c1.6-2,2.5-4.5,2.5-7.1V86.5h8.8v17.4
			c0,2.6-0.9,5.1-2.4,7.1l-17.8,22.7C-1415,135.7-1415.9,138.3-1415.9,140.9z"/>
		<path class="st0" d="M-1333.5,71.3c-24.6,0-44.5,19.9-44.5,44.5s19.9,44.5,44.5,44.5s44.5-19.9,44.5-44.5
			S-1308.9,71.3-1333.5,71.3z M-1333.5,150.3c-19,0-34.5-15.5-34.5-34.5s15.5-34.5,34.5-34.5s34.5,15.5,34.5,34.5
			S-1314.5,150.3-1333.5,150.3z"/>
		<g>
			<path class="st1" d="M-1405.2,82.5h-7.3c-1.9,0-3.4,1.5-3.4,3.4v8.9h14.1v-8.9C-1401.8,84-1403.4,82.5-1405.2,82.5z"/>
			<path class="st0" d="M-1415.9,85.9c0-1.9,1.5-3.4,3.4-3.4h7.3c1.9,0,3.4,1.5,3.4,3.4v8.9h8.7v-9.7c0-6.6-5.4-12-12-12h-7.4
				c-6.6,0-12,5.4-12,12v9.7h8.7V85.9z"/>
		</g>
	</g>
	<g>
		<g>
			<path class="st2" d="M59.9,0.1C48.9,0.1,40,9,40,20s8.9,19.9,19.9,19.9S79.9,31,79.9,20S70.9,0.1,59.9,0.1z M59.9,35.4
				c-8.5,0-15.4-6.9-15.4-15.4S51.4,4.6,59.9,4.6S75.4,11.5,75.4,20S68.4,35.4,59.9,35.4z"/>
			<polygon class="st2" points="34,5.8 34,1.3 21.6,1.3 21.6,3.2 21.6,5.8 21.6,17.5 21.6,21.9 21.6,34.5 21.6,35.1 21.6,39 34,39 
				34,34.5 26.1,34.5 26.1,21.9 34,21.9 34,17.5 26.1,17.5 26.1,5.8 			"/>
			<polygon class="st2" points="111.9,34.5 111.9,1.3 107.4,1.3 107.4,34.5 107.4,35.1 107.4,39 118.8,39 118.8,34.5 			"/>
			<path class="st2" d="M15,14.9V5c0-2.2-1.8-4-4-4H4.6c-2.2,0-4,1.8-4,4v10c0,1.1,0.5,2.1,1.3,2.7l7.8,6.1c0.5,0.4,0.8,1,0.8,1.6
				v8.2c0,0.6-0.5,1.1-1.1,1.1H6.2c-0.6,0-1.1-0.5-1.1-1.1v-8.7H0.6v9.9c0,2.2,1.8,4,4,4h6.3c2.2,0,4-1.8,4-4V24
				c0-1.3-0.6-2.6-1.7-3.3L6,15.5c-0.6-0.4-0.9-1.1-0.9-1.8V6.1C5.1,5.5,5.6,5,6.2,5h3.1c0.6,0,1.1,0.5,1.1,1.1v8.7H15z"/>
			<path class="st2" d="M96.6,1.3V24v8v2c0,0.5-0.4,0.9-0.9,0.9H91c-0.5,0-0.9-0.4-0.9-0.9V24l0-22.6h-4.5l0,31v1.2
				c0,3,2.4,5.4,5.4,5.4h4.8c3,0,5.4-2.4,5.4-5.4v-1.6v-8V1.3H96.6z"/>
		</g>
		<g>
			<path class="st2" d="M135.2,1.3v22.2v9.7v0.7c0,0.5-0.4,0.9-0.9,0.9H130v4h4.3c3,0,5.4-2.4,5.4-5.4v-0.2v-9.7V1.3H135.2z"/>
			<path class="st2" d="M150.7,1.3l-6,37.5h3.9l1-6.3h7.2l1,6.3h3.9l-6-37.5H150.7z M150.3,28.5l3-18.8l3,18.8H150.3z"/>
			<polygon class="st2" points="179.7,1.3 166.6,1.3 166.6,5.3 175.3,5.3 166.6,34.7 166.6,38.7 179.7,38.7 179.7,34.7 170.6,34.7 
				179.7,5.3 			"/>
			<polygon class="st2" points="197.4,1.3 184.3,1.3 184.3,5.3 193,5.3 184.3,34.7 184.3,38.7 197.4,38.7 197.4,34.7 188.3,34.7 
				197.4,5.3 			"/>
		</g>
		<g>
			
				<rect x="269.6" y="17.8" transform="matrix(-1.836970e-16 1 -1 -1.836970e-16 308.336 -268.3116)" class="st2" width="37.5" height="4.5"/>
			<polygon class="st2" points="240,5.6 240,1.1 227.6,1.1 227.6,3 227.6,5.6 227.6,17.2 227.6,21.7 227.6,34.3 227.6,34.9 
				227.6,38.8 240,38.8 240,34.3 232.1,34.3 232.1,21.7 240,21.7 240,17.2 232.1,17.2 232.1,5.6 			"/>
			<polygon class="st2" points="280.9,1.4 265.5,1.4 265.5,5.4 271,5.4 271,38.8 275.4,38.8 275.4,5.4 280.9,5.4 			"/>
			<polygon class="st2" points="342.2,34.8 342.2,1.3 337.7,1.3 337.7,34.8 337.7,38.8 342.2,38.8 349.4,38.8 349.4,34.8 			"/>
			<polygon class="st2" points="221.9,5.4 221.9,1.4 210.5,1.4 210.5,3.4 210.5,5.4 210.5,18 210.5,21.9 210.5,38.4 215,38.4 
				215,21.9 221.9,21.9 221.9,18 215,18 215,5.4 			"/>
			<path class="st2" d="M260.4,15V5.1c0-2.2-1.8-4-4-4H250c-2.2,0-4,1.8-4,4v10c0,1.1,0.5,2.1,1.3,2.7l7.8,6.1
				c0.5,0.4,0.8,1,0.8,1.6v8.2c0,0.6-0.5,1.1-1.1,1.1h-3.1c-0.6,0-1.1-0.5-1.1-1.1V25H246v9.9c0,2.2,1.8,4,4,4h6.3c2.2,0,4-1.8,4-4
				V24.1c0-1.3-0.6-2.6-1.7-3.3l-7.3-5.2c-0.6-0.4-0.9-1.1-0.9-1.8V6.3c0-0.6,0.5-1.1,1.1-1.1h3.1c0.6,0,1.1,0.5,1.1,1.1V15H260.4z"
				/>
			<path class="st2" d="M321.4,1.3l-6,37.5h3.9l1-6.3h7.2l1,6.3h3.9l-6-37.5H321.4z M321,28.6l3-18.8l3,18.8H321z"/>
			<g>
				<path class="st2" d="M303.9,14.5"/>
				<polygon class="st2" points="304.5,30.2 299.9,1.2 295.9,1.2 301.9,38.7 307,38.7 313,1.2 309.1,1.2 				"/>
			</g>
		</g>
	</g>
	<g>
		<g>
			<path class="st3" d="M-565.3-173.6c-23.1,0-41.9,18.7-41.9,41.9s18.7,41.9,41.9,41.9s41.9-18.7,41.9-41.9
				S-542.2-173.6-565.3-173.6z M-565.3-99.3c-17.9,0-32.5-14.6-32.5-32.5s14.6-32.5,32.5-32.5s32.5,14.6,32.5,32.5
				S-547.5-99.3-565.3-99.3z"/>
			<polygon class="st3" points="-619.8,-161.6 -619.8,-171 -645.8,-171 -645.8,-167.1 -645.8,-161.6 -645.8,-137.1 -645.8,-127.7 
				-645.8,-101.3 -645.8,-100.1 -645.8,-91.9 -619.8,-91.9 -619.8,-101.3 -636.4,-101.3 -636.4,-127.7 -619.8,-127.7 -619.8,-137.1 
				-636.4,-137.1 -636.4,-161.6 			"/>
			<polygon class="st3" points="-456.1,-101.3 -456.1,-171 -465.5,-171 -465.5,-101.3 -465.5,-100.1 -465.5,-91.9 -441.6,-91.9 
				-441.6,-101.3 			"/>
			<path class="st3" d="M-659.8-142.6v-20.7c0-4.7-3.8-8.5-8.5-8.5h-13.3c-4.7,0-8.5,3.8-8.5,8.5v21.1c0,2.2,1,4.3,2.8,5.7
				l16.4,12.7c1,0.8,1.7,2.1,1.7,3.4v17.1c0,1.3-1.1,2.4-2.4,2.4h-6.6c-1.3,0-2.4-1.1-2.4-2.4v-18.3h-9.4v20.7
				c0,4.7,3.8,8.5,8.5,8.5h13.3c4.7,0,8.5-3.8,8.5-8.5v-22.5c0-2.8-1.3-5.4-3.6-7l-15.3-10.9c-1.2-0.9-1.9-2.3-1.9-3.8v-15.9
				c0-1.3,1.1-2.4,2.4-2.4h6.6c1.3,0,2.4,1.1,2.4,2.4v18.3H-659.8z"/>
			<path class="st3" d="M-488.2-171v47.5v16.7v4.2c0,1-0.9,1.9-1.9,1.9h-10c-1,0-1.9-0.9-1.9-1.9v-21l-0.1-47.5h-9.4l0.1,65.1v2.5
				c0,6.2,5.1,11.3,11.3,11.3h10c6.2,0,11.3-5.1,11.3-11.3v-3.3v-16.7V-171H-488.2z"/>
		</g>
		<g>
			<path class="st4" d="M-572.3-75.1v46.6v20.3v1.4c0,1-0.9,1.9-1.9,1.9h-8.9v8.5h8.9c6.2,0,11.3-5.1,11.3-11.3v-0.5v-20.3v-46.6
				H-572.3z"/>
			<path class="st4" d="M-539.6-75.1l-12.6,78.7h8.3l2.1-13.3h15.1l2.1,13.3h8.3l-12.6-78.7H-539.6z M-540.5-17.8l6.3-39.4l6.3,39.4
				H-540.5z"/>
			<polygon class="st4" points="-478.8,-75.1 -506.2,-75.1 -506.2,-66.6 -487.9,-66.6 -506.2,-4.8 -506.2,3.6 -478.8,3.6 
				-478.8,-4.8 -498,-4.8 -478.8,-66.6 			"/>
			<polygon class="st4" points="-441.6,-75.1 -469,-75.1 -469,-66.6 -450.7,-66.6 -469,-4.8 -469,3.6 -441.6,3.6 -441.6,-4.8 
				-460.8,-4.8 -441.6,-66.6 			"/>
		</g>
		<g>
			
				<rect x="-609.3" y="55.3" transform="matrix(-1.836970e-16 1 -1 -1.836970e-16 -509.9258 629.8815)" class="st3" width="78.8" height="9.4"/>
			<polygon class="st3" points="-671.5,29.7 -671.5,20.3 -697.5,20.3 -697.5,24.2 -697.5,29.7 -697.5,54.2 -697.5,63.6 -697.5,89.9 
				-697.5,91.2 -697.5,99.3 -671.5,99.3 -671.5,89.9 -688.1,89.9 -688.1,63.6 -671.5,63.6 -671.5,54.2 -688.1,54.2 -688.1,29.7 			
				"/>
			<polygon class="st3" points="-585.4,20.9 -617.9,20.9 -617.9,29.2 -606.4,29.2 -606.4,99.4 -597,99.4 -597,29.2 -585.4,29.2 			
				"/>
			<polygon class="st3" points="-456.7,91.1 -456.7,20.7 -466.1,20.7 -466.1,91.1 -466.1,99.4 -456.7,99.4 -441.6,99.4 -441.6,91.1 
							"/>
			<polygon class="st3" points="-709.5,29.2 -709.5,20.9 -733.4,20.9 -733.4,25.1 -733.4,29.2 -733.4,55.7 -733.4,64 -733.4,98.6 
				-724,98.6 -724,64 -709.5,64 -709.5,55.7 -724,55.7 -724,29.2 			"/>
			<path class="st3" d="M-628.7,49.4V28.7c0-4.7-3.8-8.5-8.5-8.5h-13.3c-4.7,0-8.5,3.8-8.5,8.5v21.1c0,2.2,1,4.3,2.8,5.7l16.4,12.7
				c1,0.8,1.7,2.1,1.7,3.4v17.1c0,1.3-1.1,2.4-2.4,2.4h-6.6c-1.3,0-2.4-1.1-2.4-2.4V70.5h-9.4v20.7c0,4.7,3.8,8.5,8.5,8.5h13.3
				c4.7,0,8.5-3.8,8.5-8.5V68.7c0-2.8-1.3-5.4-3.6-7l-15.3-10.9c-1.2-0.9-1.9-2.3-1.9-3.8V31.1c0-1.3,1.1-2.4,2.4-2.4h6.6
				c1.3,0,2.4,1.1,2.4,2.4v18.3H-628.7z"/>
			<path class="st3" d="M-500.3,20.7l-12.6,78.7h8.3l2.1-13.3h15.1l2.1,13.3h8.3l-12.6-78.7H-500.3z M-501.2,78l6.3-39.4l6.3,39.4
				H-501.2z"/>
			<g>
				<path class="st3" d="M-537.1,48.4"/>
				<polygon class="st3" points="-536,81.3 -545.6,20.4 -553.9,20.4 -541.4,99.2 -530.6,99.2 -518,20.4 -526.3,20.4 				"/>
			</g>
		</g>
		<g>
			<path class="st4" d="M-622.9,114.3c-23.1,0-41.9,18.7-41.9,41.9S-646,198-622.9,198c23.1,0,41.9-18.7,41.9-41.9
				S-599.8,114.3-622.9,114.3z M-622.9,188.6c-17.9,0-32.5-14.6-32.5-32.5s14.6-32.5,32.5-32.5c17.9,0,32.5,14.6,32.5,32.5
				S-605,188.6-622.9,188.6z"/>
			<g>
				<path class="st4" d="M-700.5,187.3v-7.4c0-2.5,0.8-4.9,2.4-6.9l16.7-21.4c1.5-1.9,2.3-4.2,2.3-6.7v-8.5h0v-9.1
					c0-6.2-5.1-11.3-11.3-11.3h-7c-6.2,0-11.3,5.1-11.3,11.3v1.3v7.8v9.4h8.3l-0.1-17.2v-0.5c0-1.7,1.4-3.2,3.2-3.2h6.9
					c1.7,0,3.2,1.4,3.2,3.2v0.5l-0.1,13.5c0,2.4-0.8,4.8-2.3,6.7l-17.5,22.3c-1.5,2-2.4,4.4-2.4,6.9v9.3v3.3v5h31.4v-8.3H-700.5z"/>
			</g>
			<g>
				<path class="st4" d="M-560.3,187.3v-7.4c0-2.5,0.8-4.9,2.4-6.9l16.7-21.4c1.5-1.9,2.3-4.2,2.3-6.7v-8.5h0v-9.1
					c0-6.2-5.1-11.3-11.3-11.3h-7c-6.2,0-11.3,5.1-11.3,11.3v1.3v7.8v9.4h8.3l-0.1-17.2v-0.5c0-1.7,1.4-3.2,3.2-3.2h6.9
					c1.7,0,3.2,1.4,3.2,3.2v0.5l-0.1,13.5c0,2.4-0.8,4.8-2.3,6.7l-17.5,22.3c-1.5,2-2.4,4.4-2.4,6.9v9.3v3.3v5h31.4v-8.3H-560.3z"/>
			</g>
			<path class="st4" d="M-483.4,114.3c-23.1,0-41.9,18.7-41.9,41.9s18.7,41.9,41.9,41.9c23.1,0,41.9-18.7,41.9-41.9
				S-460.3,114.3-483.4,114.3z M-483.4,188.6c-17.9,0-32.5-14.6-32.5-32.5s14.6-32.5,32.5-32.5c17.9,0,32.5,14.6,32.5,32.5
				S-465.6,188.6-483.4,188.6z"/>
		</g>
	</g>
	<path class="st0" d="M-1734.9,809.8c-0.5-2.4-0.7-4.9-0.7-7.4c0-22.2,18.4-40.3,41.1-40.3s41.9,17.6,41.9,39.9l8.1-1.5
		c-1-26.3-23-47.4-50.1-47.4c-27.7,0-50.1,22.1-50.1,49.3c0,1.9,0.1,3.7,0.3,5.5c0.1,1,0.3,2,0.6,2.9l89.4,293.1
		c5,19.6-6.5,40.4-26.2,47.9c-21.2,8.1-46.6-0.6-55.8-31.7c-0.7-2.5-1.6-4.8-2-7.3l-8.6,2.8c0.5,2.6,4.2,14,5.2,16.6
		c9.8,25.4,38.7,38,64.5,28c24-9.3,36.9-34.7,30.7-58.7L-1734.9,809.8z"/>
	<path class="st0" d="M-1663.5,809.8c-0.5-2.4-0.7-4.9-0.7-7.4c0-22.2,18.4-40.3,41.1-40.3s41.9,17.6,41.9,39.9l8.1-1.5
		c-1-26.3-23-47.4-50.1-47.4c-27.7,0-50.1,22.1-50.1,49.3c0,1.9,0.1,3.7,0.3,5.5c0.1,1,0.3,2,0.6,2.9l89.4,293.1
		c5,19.6-6.5,40.4-26.2,47.9c-21.2,8.1-46.6-0.6-55.8-31.7c-0.7-2.5-1.6-4.8-2-7.3l-8.6,2.8c0.5,2.6,4.2,14,5.2,16.6
		c9.8,25.4,38.7,38,64.5,28c24-9.3,36.9-34.7,30.7-58.7L-1663.5,809.8z"/>
	<polygon class="st0" points="-1912.6,1104.1 -2002.1,809.6 -2001.7,807.8 -1994.1,805.5 -1904.2,1101.5 	"/>
	<g>
		<path class="st0" d="M-1902.4,800.5c-1-26.3-23-47.4-50.1-47.4c-27.7,0-50.1,22.1-50.1,49.3c0,2.7,0.2,5.4,0.7,8.1l9.1-0.5
			c-0.5-2.4-0.7-5-0.7-7.5c0-22.2,18.4-40.3,41.1-40.3s41.9,17.6,41.9,39.9L-1902.4,800.5z"/>
	</g>
	<g>
		<path class="st0" d="M-1905.4,1098.1c8.5,25-4.5,52.5-29.7,62.2c-25.8,9.9-54.7-2.6-64.5-28c-1-2.6-4.7-14-5.2-16.6l8.6-2.8
			c0.4,2.4,1.3,4.8,2,7.3c9.2,31.1,34.6,39.8,55.8,31.7s32.8-31.5,24.8-52.3L-1905.4,1098.1z"/>
	</g>
	<g>
		<path class="st0" d="M-1603.5,761.2l-8.1,3.1l103.1,339.6c5,19.6-6.5,40.4-26.2,47.9c-21.2,8.1-46.6-0.6-55.8-31.7
			c-0.7-2.5-1.6-4.8-2-7.3l-8.6,2.8c0.5,2.6,4.2,14,5.2,16.6c9.8,25.4,38.7,38,64.5,28c24-9.3,36.9-34.7,30.7-58.7L-1603.5,761.2z"
			/>
	</g>
	<g>
		<path class="st0" d="M-1534.3,750.7l-8.1,3.1L-1436,1104c5,19.6-6.5,40.4-26.2,47.9c-21.2,8.1-46.6-0.6-55.8-31.7
			c-0.7-2.5-1.6-4.8-2-7.3l-8.6,2.8c0.5,2.6,4.2,14,5.2,16.6c9.8,25.4,38.7,38,64.5,28c24-9.3,36.9-34.7,30.7-58.7L-1534.3,750.7z"
			/>
	</g>
	<g>
		<path class="st0" d="M-1275.9,1154.7l8.1-3.1L-1370.9,812c-5-19.6,6.5-40.4,26.2-47.9c21.2-8.1,46.6,0.6,55.8,31.7
			c0.7,2.5,1.6,4.8,2,7.3l8.6-2.8c-0.5-2.6-4.2-14-5.2-16.6c-9.8-25.4-38.7-38-64.5-28c-24,9.3-36.9,34.7-30.7,58.7L-1275.9,1154.7z
			"/>
	</g>
	<g>
		<path class="st0" d="M-1348.4,1154.7l8.1-3.1L-1443.4,812c-5-19.6,6.5-40.4,26.2-47.9c21.2-8.1,46.6,0.6,55.8,31.7
			c0.7,2.5,1.6,4.8,2,7.3l8.6-2.8c-0.5-2.6-4.2-14-5.2-16.6c-9.8-25.4-38.7-38-64.5-28c-24,9.3-36.9,34.7-30.7,58.7L-1348.4,1154.7z
			"/>
	</g>
	<polygon class="st0" points="-1912.6,1104.1 -2002.1,809.6 -2001.7,807.8 -1994.1,805.5 -1904.2,1101.5 	"/>
	<g>
		<line class="st0" x1="-1314.2" y1="905.5" x2="-1311.5" y2="913.9"/>
		<polygon class="st0" points="-1314.2,905.5 -1513.3,966.6 -1510.6,974.9 -1311.5,913.9 		"/>
	</g>
	<g>
		<line class="st0" x1="-1255.2" y1="909.1" x2="-1252.5" y2="917.4"/>
		<polygon class="st0" points="-1255.2,909.1 -1425.9,961.8 -1423.2,970.1 -1252.5,917.4 		"/>
	</g>
	<g>
		<line class="st4" x1="-148.4" y1="905.5" x2="-145.7" y2="913.9"/>
		<line class="st3" x1="-89.4" y1="909.1" x2="-86.7" y2="917.4"/>
		<g>
			<g>
				<g>
					<path class="st4" d="M-416,862.6l8.7-0.5l-28.1-93c-3.2-1.9-6.7-3.5-10.4-4.5L-416,862.6z"/>
				</g>
				<g>
					<path class="st3" d="M-434.5,768.6c11.4,7.1,19.1,19.3,19.1,33.3l8.1-1.5c-1-26.3-23-47.4-50.1-47.4c-13.6,0-25.9,5.3-34.9,14
						c2.1,2.1,4.1,4.4,5.8,6.9c7.4-7.3,17.8-11.9,29.1-11.9c3.8,0,7.4,0.5,10.9,1.4l9.3-3.6L-434.5,768.6z"/>
				</g>
				<g>
					<path class="st3" d="M-435.8,767.8c0.4,0.2,0.9,0.5,1.3,0.8l-2.6-8.7l-9.3,3.6c0.5,0.1,1.1,0.3,1.6,0.5l7-2.7L-435.8,767.8z"/>
				</g>
				<g>
					<path class="st3" d="M-437.7,761.2l-7,2.7c3.2,1,6.2,2.3,9,3.9L-437.7,761.2z"/>
				</g>
			</g>
			<g>
				<path class="st3" d="M-499.1,775.1c-5.3,7.8-8.4,17.2-8.4,27.3c0,1.9,0.1,3.7,0.3,5.5c0.1,1,0.3,2,0.6,2.9l9.2,30.3h9l-9.5-31.4
					c-0.5-2.4-0.7-4.9-0.7-7.4c0-7.2,1.9-13.9,5.3-19.8C-494.8,779.9-496.8,777.4-499.1,775.1z"/>
			</g>
		</g>
		<g>
			<polygon class="st3" points="-368.5,750.7 -376.6,753.8 -349.9,841.8 -340.8,842.3 			"/>
		</g>
		<g>
			<g>
				<path class="st4" d="M-514.6,1151.9c-21.2,8.1-46.6-0.6-55.8-31.7c-0.7-2.5-1.6-4.8-2-7.3l-8.6,2.8c0.5,2.6,4.2,14,5.2,16.6
					c9.8,25.4,38.7,38,64.5,28c6.5-2.5,12.1-6.2,16.8-10.7c-2.1-2.1-4-4.4-5.6-6.9C-504.2,1146.6-509.1,1149.8-514.6,1151.9z"/>
			</g>
			<g>
				<path class="st4" d="M-480.6,1101.6l-73.3-241.7h-9l74.5,244.1c2.5,10,0.8,20.3-4.2,29c1.6,2.8,3.5,5.4,5.5,7.7
					C-479.8,1129.3-477.1,1115.2-480.6,1101.6z"/>
			</g>
			<g>
				<path class="st3" d="M-409.3,1101.6l-78.9-260.5h-9l80.2,262.8c2.3,9,1.1,18.1-2.7,26.2c1.5,3.1,3.3,5.9,5.3,8.4
					C-408.1,1127.6-406,1114.4-409.3,1101.6z"/>
			</g>
			<g>
				<path class="st3" d="M-443.3,1151.9c-14.8,5.7-31.7,3.1-43.7-9.6c-1.8,2.6-3.8,5.1-6.1,7.3c13.5,13.1,34.1,18,53,10.7
					c7.2-2.8,13.4-7,18.4-12.2c-2-2.2-3.8-4.6-5.4-7.2C-431.4,1145.6-436.9,1149.5-443.3,1151.9z"/>
			</g>
			<g>
				<path class="st3" d="M-499,1120.2c-0.7-2.5-1.6-4.8-2-7.3l-8.6,2.8c0.5,2.6,4.2,14,5.2,16.6c1.2,3.2,2.8,6.2,4.5,8.9
					c2.4-2.5,4.6-5.2,6.3-8.1C-495.8,1129.3-497.6,1125-499,1120.2z"/>
			</g>
			<g>
				<path class="st3" d="M-493.7,1133.1c-1.7,2.9-3.8,5.7-6.3,8.1c0.2,0.3,0.4,0.5,0.5,0.8c2.4-2.4,4.5-5.1,6.3-8
					C-493.3,1133.7-493.5,1133.4-493.7,1133.1z"/>
			</g>
			<g>
				<path class="st3" d="M-487.7,1141.5c-1.8,2.6-3.8,5.1-6.1,7.4c0.2,0.2,0.5,0.5,0.7,0.7c2.3-2.3,4.3-4.7,6.1-7.3
					C-487.2,1142-487.4,1141.8-487.7,1141.5z"/>
			</g>
			<g>
				<path class="st3" d="M-493.2,1134c-1.7,2.9-3.9,5.6-6.3,8c1.7,2.5,3.6,4.8,5.6,6.9c2.3-2.3,4.3-4.8,6.1-7.4
					C-489.7,1139.3-491.5,1136.8-493.2,1134z"/>
			</g>
			<g>
				<path class="st4" d="M-424.8,1120.2c-0.7-2.5-1.6-4.8-2-7.3l-8.6,2.8c0.5,2.6,4.2,14,5.2,16.6c1,2.5,2.1,4.8,3.4,7
					c2.4-2.7,4.4-5.8,6-9C-422.4,1127.2-423.7,1123.9-424.8,1120.2z"/>
			</g>
			<g>
				<path class="st4" d="M-369,1151.9c-15.5,6-33.4,2.9-45.4-11.5c-1.7,2.7-3.7,5.3-5.9,7.7c13.4,14.3,34.9,19.8,54.5,12.2
					c6.8-2.6,12.6-6.5,17.4-11.3c-2-2.2-3.9-4.5-5.5-7C-358,1146.2-363.1,1149.7-369,1151.9z"/>
			</g>
			<g>
				<path class="st4" d="M-335,1101.6l-72.3-239.5l-8.7,0.5l73.2,241.4c2.4,9.6,0.9,19.5-3.6,28c1.6,2.9,3.4,5.6,5.4,7.9
					C-334,1128.7-331.6,1114.9-335,1101.6z"/>
			</g>
			<g>
				<path class="st4" d="M-415.1,1139.5c-1.7,2.8-3.7,5.4-5.9,7.8c0.2,0.3,0.5,0.5,0.7,0.7c2.2-2.4,4.2-5,5.9-7.7
					C-414.6,1140.1-414.8,1139.8-415.1,1139.5z"/>
			</g>
			<g>
				<path class="st4" d="M-420.9,1130.3c-1.6,3.2-3.6,6.3-6,9c0.2,0.3,0.3,0.6,0.5,0.8c2.4-2.7,4.4-5.7,6-8.8
					C-420.5,1131-420.7,1130.6-420.9,1130.3z"/>
			</g>
			<g>
				<path class="st4" d="M-420.3,1131.3c-1.6,3.2-3.6,6.1-6,8.8c1.6,2.6,3.4,5,5.4,7.2c2.2-2.4,4.2-5.1,5.9-7.8
					C-417,1137.1-418.8,1134.4-420.3,1131.3z"/>
			</g>
			<g>
				<path class="st3" d="M-352.2,1120.2c-0.7-2.5-1.6-4.8-2-7.3l-8.6,2.8c0.5,2.6,4.2,14,5.2,16.6c1.1,2.9,2.5,5.6,4.1,8.2
					c2.4-2.6,4.5-5.4,6.2-8.5C-349.3,1128.5-350.9,1124.6-352.2,1120.2z"/>
			</g>
			<g>
				<path class="st3" d="M-347.6,1148.3c0.2,0.2,0.5,0.5,0.7,0.7c2.2-2.3,4.3-4.8,6-7.5c-0.2-0.3-0.5-0.5-0.7-0.8
					C-343.3,1143.4-345.3,1146-347.6,1148.3z"/>
			</g>
			<g>
				<path class="st3" d="M-347.4,1132c-1.7,3-3.7,5.9-6.2,8.5c0.2,0.3,0.3,0.6,0.5,0.8c2.4-2.5,4.5-5.3,6.2-8.3
					C-347.1,1132.7-347.3,1132.3-347.4,1132z"/>
			</g>
			<g>
				<path class="st3" d="M-346.9,1133c-1.7,3-3.8,5.8-6.2,8.3c1.6,2.5,3.5,4.9,5.5,7c2.3-2.3,4.3-4.9,6-7.6
					C-343.5,1138.5-345.3,1135.9-346.9,1133z"/>
			</g>
		</g>
		<g>
			<path class="st4" d="M-569.1,809.8c-0.5-2.4-0.7-4.9-0.7-7.4c0-22.2,18.4-40.3,41.1-40.3s41.9,17.6,41.9,39.9l8.1-1.5
				c-1-26.3-23-47.4-50.1-47.4c-27.7,0-50.1,22.1-50.1,49.3c0,1.9,0.1,3.7,0.3,5.5c0.1,1,0.3,2,0.6,2.9l15,49h9L-569.1,809.8z"/>
		</g>
		<g>
			<polygon class="st1" points="-236.8,942.9 -233.9,952.6 -177.4,935.2 -180.3,925.5 			"/>
			<g>
				<path class="st3" d="M-293.2,1160.3c24-9.3,36.9-34.7,30.7-58.7l-41.7-138.1l-8,2.4l41.9,138c5,19.6-6.5,40.4-26.2,47.9
					c-15.1,5.8-32.4,3-44.4-10.4c-1.8,2.7-3.8,5.2-6,7.5C-333.4,1162.6-312.5,1167.7-293.2,1160.3z"/>
			</g>
			<g>
				<polygon class="st3" points="-340.8,842.3 -349.9,841.8 -315.3,955.6 -307.3,953.2 				"/>
			</g>
			<g>
				<polygon class="st3" points="-307.3,953.2 -315.3,955.6 -315,956.6 -307,954.2 				"/>
			</g>
			<g>
				<polygon class="st3" points="-312.2,966 -304.2,963.5 -304.5,962.6 -312.5,965 				"/>
			</g>
			<g>
				<polygon class="st4" points="-347.5,966.6 -344.8,974.9 -313.4,965.3 -316,956.9 				"/>
			</g>
			<g>
				<polygon class="st4" points="-306.1,953.9 -303.5,962.3 -247,944.9 -249.5,936.5 				"/>
			</g>
			<g>
				<polygon class="st4" points="-180.6,924.6 -183.1,916.2 -239.7,933.5 -237.1,941.9 				"/>
			</g>
			<g>
				<polygon class="st3" points="-315,956.6 -312.5,965 -304.5,962.6 -307,954.2 				"/>
			</g>
			<g>
				<polygon class="st4" points="-145.7,913.9 -148.4,905.5 -173.3,913.1 -170.8,921.6 				"/>
			</g>
			<g>
				<polygon class="st4" points="-170.8,921.6 -173.3,913.1 -174.3,913.4 -171.7,921.8 				"/>
			</g>
			<g>
				<polygon class="st4" points="-179.6,924.3 -182.2,915.9 -183.1,916.2 -180.6,924.6 				"/>
			</g>
			<g>
				<polygon class="st3" points="-199.6,829.9 -208.3,829.5 -182.5,914.9 -174.6,912.5 				"/>
			</g>
			<g>
				<polygon class="st3" points="-176.4,934.9 -168.5,932.4 -171.4,922.8 -179.4,925.2 				"/>
			</g>
			<g>
				<polygon class="st3" points="-110.1,1154.7 -102,1151.6 -165.4,942.8 -173.3,945.2 				"/>
			</g>
			<g>
				<polygon class="st4" points="-171.7,921.8 -174.3,913.4 -182.2,915.9 -179.6,924.3 				"/>
			</g>
			<g>
				<polygon class="st4" points="-182.6,1154.7 -174.5,1151.6 -231.7,963.2 -239.7,965.7 				"/>
			</g>
			<g>
				<polygon class="st4" points="-267.5,845.2 -276.1,845.1 -248.9,935.3 -240.9,932.8 				"/>
			</g>
			<g>
				<polygon class="st4" points="-237.8,943.2 -245.7,945.6 -242.8,955.4 -234.8,952.9 				"/>
			</g>
			<g>
				<polygon class="st4" points="-240.9,932.8 -248.9,935.3 -248.6,936.2 -240.6,933.8 				"/>
			</g>
			<g>
				<polygon class="st4" points="-238.1,942.2 -246,944.6 -245.7,945.6 -237.8,943.2 				"/>
			</g>
			<g>
				<polygon class="st4" points="-240.6,933.8 -248.6,936.2 -246,944.6 -238.1,942.2 				"/>
			</g>
			<g>
				<polygon class="st3" points="-260.1,961.8 -257.4,970.1 -240.9,965 -243.5,956.6 				"/>
			</g>
			<g>
				<polygon class="st3" points="-86.7,917.4 -89.4,909.1 -167.3,933.1 -164.7,941.5 				"/>
			</g>
			<g>
				<polygon class="st3" points="-233.6,953.6 -231,962 -174.6,944.6 -177.1,936.1 				"/>
			</g>
			<g>
				<polygon class="st3" points="-164.7,941.5 -167.3,933.1 -168.2,933.4 -165.7,941.8 				"/>
			</g>
			<g>
				<polygon class="st3" points="-177.1,936.1 -174.6,944.6 -173.6,944.3 -176.2,935.8 				"/>
			</g>
			<g>
				<polygon class="st3" points="-168.2,933.4 -176.2,935.8 -173.6,944.3 -165.7,941.8 				"/>
			</g>
			<g>
				<polygon class="st3" points="-243.5,956.6 -240.9,965 -240,964.7 -242.5,956.3 				"/>
			</g>
			<g>
				<polygon class="st3" points="-234.5,953.9 -232,962.3 -231,962 -233.6,953.6 				"/>
			</g>
			<g>
				<polygon class="st3" points="-242.5,956.3 -240,964.7 -232,962.3 -234.5,953.9 				"/>
			</g>
		</g>
		<g>
			<g>
				<path class="st3" d="M-212.8,814.3l4.6,15.2l8.6,0.4l-5.4-17.9c-2.4-9.6-0.9-19.5,3.6-28c-1.6-2.9-3.4-5.6-5.4-7.9
					C-213.8,787.3-216.3,801-212.8,814.3z"/>
			</g>
			<g>
				<path class="st3" d="M-178.9,764c21.2-8.1,46.6,0.6,55.8,31.7c0.7,2.5,1.6,4.8,2,7.3l8.6-2.8c-0.5-2.6-4.2-14-5.2-16.6
					c-9.8-25.4-38.7-38-64.5-28c-6.8,2.6-12.6,6.5-17.4,11.2c2,2.2,3.9,4.5,5.5,7C-189.8,769.7-184.7,766.3-178.9,764z"/>
			</g>
			<g>
				<path class="st4" d="M-195.6,795.7c0.7,2.5,1.6,4.8,2,7.3l8.6-2.8c-0.5-2.6-4.2-14-5.2-16.6c-1.1-2.9-2.5-5.6-4.1-8.2
					c-2.4,2.6-4.5,5.4-6.2,8.5C-198.5,787.4-196.9,791.3-195.6,795.7z"/>
			</g>
			<g>
				<path class="st4" d="M-254.6,755.6c-24,9.3-36.9,34.7-30.7,58.7l9.3,30.8l8.5,0.1l-10.1-33.2c-5-19.6,6.5-40.4,26.2-47.9
					c15.1-5.8,32.4-3,44.4,10.4c1.8-2.7,3.8-5.2,6-7.5C-214.5,753.3-235.4,748.2-254.6,755.6z"/>
			</g>
			<g>
				<path class="st4" d="M-201,766.9c-2.2,2.3-4.3,4.8-6,7.5c0.2,0.3,0.5,0.5,0.7,0.8c1.8-2.7,3.8-5.2,6-7.6
					C-200.5,767.4-200.7,767.2-201,766.9z"/>
			</g>
			<g>
				<path class="st4" d="M-200.4,783.9c1.7-3,3.7-5.9,6.2-8.5c-0.2-0.3-0.3-0.6-0.5-0.8c-2.4,2.5-4.5,5.3-6.2,8.3
					C-200.7,783.3-200.6,783.6-200.4,783.9z"/>
			</g>
			<g>
				<path class="st4" d="M-206.3,775.2c2,2.3,3.8,4.9,5.4,7.8c1.7-3,3.8-5.8,6.2-8.3c-1.6-2.5-3.5-4.9-5.5-7
					C-202.5,770-204.6,772.5-206.3,775.2z"/>
			</g>
		</g>
	</g>
	<g>
		<line class="st4" x1="-105.5" y1="3.6" x2="-105" y2="5.3"/>
		<line class="st3" x1="-94.1" y1="4.3" x2="-93.5" y2="6"/>
		<g>
			<g>
				<g>
					<path class="st4" d="M-157.4-4.7l1.7-0.1l-5.4-18c-0.6-0.4-1.3-0.7-2-0.9L-157.4-4.7z"/>
				</g>
				<g>
					<path class="st3" d="M-161-22.9c2.2,1.4,3.7,3.7,3.7,6.5l1.6-0.3c-0.2-5.1-4.5-9.2-9.7-9.2c-2.6,0-5,1-6.8,2.7
						c0.4,0.4,0.8,0.9,1.1,1.3c1.4-1.4,3.4-2.3,5.7-2.3c0.7,0,1.4,0.1,2.1,0.3l1.8-0.7L-161-22.9z"/>
				</g>
				<g>
					<path class="st3" d="M-161.3-23.1c0.1,0,0.2,0.1,0.2,0.1l-0.5-1.7l-1.8,0.7c0.1,0,0.2,0.1,0.3,0.1l1.4-0.5L-161.3-23.1z"/>
				</g>
				<g>
					<path class="st3" d="M-161.7-24.4l-1.4,0.5c0.6,0.2,1.2,0.4,1.7,0.8L-161.7-24.4z"/>
				</g>
			</g>
			<g>
				<path class="st3" d="M-173.6-21.7c-1,1.5-1.6,3.3-1.6,5.3c0,0.4,0,0.7,0.1,1.1c0,0.2,0.1,0.4,0.1,0.6l1.8,5.9h1.7l-1.8-6.1
					c-0.1-0.5-0.1-0.9-0.1-1.4c0-1.4,0.4-2.7,1-3.8C-172.7-20.7-173.1-21.2-173.6-21.7z"/>
			</g>
		</g>
		<g>
			<polygon class="st3" points="-148.2,-26.4 -149.8,-25.8 -144.6,-8.7 -142.9,-8.6 			"/>
		</g>
		<g>
			<g>
				<path class="st4" d="M-176.6,51.5c-4.1,1.6-9-0.1-10.8-6.1c-0.1-0.5-0.3-0.9-0.4-1.4l-1.7,0.5c0.1,0.5,0.8,2.7,1,3.2
					c1.9,4.9,7.5,7.4,12.5,5.4c1.3-0.5,2.4-1.2,3.3-2.1c-0.4-0.4-0.8-0.9-1.1-1.3C-174.6,50.4-175.5,51.1-176.6,51.5z"/>
			</g>
			<g>
				<path class="st4" d="M-170,41.7l-14.2-46.9h-1.7l14.5,47.4c0.5,1.9,0.2,3.9-0.8,5.6c0.3,0.5,0.7,1,1.1,1.5
					C-169.8,47.1-169.3,44.4-170,41.7z"/>
			</g>
			<g>
				<path class="st3" d="M-156.1,41.7l-15.3-50.6h-1.7l15.6,51c0.4,1.7,0.2,3.5-0.5,5.1c0.3,0.6,0.6,1.1,1,1.6
					C-155.9,46.8-155.5,44.2-156.1,41.7z"/>
			</g>
			<g>
				<path class="st3" d="M-162.7,51.5c-2.9,1.1-6.2,0.6-8.5-1.9c-0.3,0.5-0.7,1-1.2,1.4c2.6,2.6,6.6,3.5,10.3,2.1
					c1.4-0.5,2.6-1.4,3.6-2.4c-0.4-0.4-0.7-0.9-1-1.4C-160.4,50.3-161.5,51-162.7,51.5z"/>
			</g>
			<g>
				<path class="st3" d="M-173.6,45.3c-0.1-0.5-0.3-0.9-0.4-1.4l-1.7,0.5c0.1,0.5,0.8,2.7,1,3.2c0.2,0.6,0.5,1.2,0.9,1.7
					c0.5-0.5,0.9-1,1.2-1.6C-172.9,47.1-173.3,46.3-173.6,45.3z"/>
			</g>
			<g>
				<path class="st3" d="M-172.5,47.8c-0.3,0.6-0.7,1.1-1.2,1.6c0,0.1,0.1,0.1,0.1,0.2c0.5-0.5,0.9-1,1.2-1.6
					C-172.5,47.9-172.5,47.9-172.5,47.8z"/>
			</g>
			<g>
				<path class="st3" d="M-171.4,49.5c-0.3,0.5-0.7,1-1.2,1.4c0,0,0.1,0.1,0.1,0.1c0.4-0.4,0.8-0.9,1.2-1.4
					C-171.3,49.6-171.3,49.5-171.4,49.5z"/>
			</g>
			<g>
				<path class="st3" d="M-172.4,48c-0.3,0.6-0.7,1.1-1.2,1.6c0.3,0.5,0.7,0.9,1.1,1.3c0.4-0.4,0.8-0.9,1.2-1.4
					C-171.7,49-172.1,48.5-172.4,48z"/>
			</g>
			<g>
				<path class="st4" d="M-159.1,45.3c-0.1-0.5-0.3-0.9-0.4-1.4l-1.7,0.5c0.1,0.5,0.8,2.7,1,3.2c0.2,0.5,0.4,0.9,0.7,1.4
					c0.5-0.5,0.9-1.1,1.2-1.7C-158.7,46.7-158.9,46-159.1,45.3z"/>
			</g>
			<g>
				<path class="st4" d="M-148.3,51.5c-3,1.2-6.5,0.6-8.8-2.2c-0.3,0.5-0.7,1-1.1,1.5c2.6,2.8,6.8,3.8,10.6,2.4
					c1.3-0.5,2.5-1.3,3.4-2.2c-0.4-0.4-0.8-0.9-1.1-1.4C-146.2,50.4-147.2,51-148.3,51.5z"/>
			</g>
			<g>
				<path class="st4" d="M-141.7,41.7l-14-46.5l-1.7,0.1l14.2,46.8c0.5,1.9,0.2,3.8-0.7,5.4c0.3,0.6,0.7,1.1,1,1.5
					C-141.5,47-141.1,44.3-141.7,41.7z"/>
			</g>
			<g>
				<path class="st4" d="M-157.3,49.1c-0.3,0.5-0.7,1-1.1,1.5c0,0,0.1,0.1,0.1,0.1c0.4-0.5,0.8-1,1.1-1.5
					C-157.2,49.2-157.2,49.1-157.3,49.1z"/>
			</g>
			<g>
				<path class="st4" d="M-158.4,47.3c-0.3,0.6-0.7,1.2-1.2,1.7c0,0.1,0.1,0.1,0.1,0.2c0.5-0.5,0.9-1.1,1.2-1.7
					C-158.3,47.4-158.4,47.3-158.4,47.3z"/>
			</g>
			<g>
				<path class="st4" d="M-158.3,47.5c-0.3,0.6-0.7,1.2-1.2,1.7c0.3,0.5,0.7,1,1,1.4c0.4-0.5,0.8-1,1.1-1.5
					C-157.6,48.6-158,48.1-158.3,47.5z"/>
			</g>
			<g>
				<path class="st3" d="M-145.1,45.3c-0.1-0.5-0.3-0.9-0.4-1.4l-1.7,0.5c0.1,0.5,0.8,2.7,1,3.2c0.2,0.6,0.5,1.1,0.8,1.6
					c0.5-0.5,0.9-1.1,1.2-1.6C-144.5,46.9-144.8,46.2-145.1,45.3z"/>
			</g>
			<g>
				<path class="st3" d="M-144.2,50.8c0,0,0.1,0.1,0.1,0.1c0.4-0.4,0.8-0.9,1.2-1.5c0-0.1-0.1-0.1-0.1-0.2
					C-143.3,49.8-143.7,50.3-144.2,50.8z"/>
			</g>
			<g>
				<path class="st3" d="M-144.1,47.6c-0.3,0.6-0.7,1.1-1.2,1.6c0,0.1,0.1,0.1,0.1,0.2c0.5-0.5,0.9-1,1.2-1.6
					C-144.1,47.7-144.1,47.7-144.1,47.6z"/>
			</g>
			<g>
				<path class="st3" d="M-144,47.8c-0.3,0.6-0.7,1.1-1.2,1.6c0.3,0.5,0.7,0.9,1.1,1.4c0.4-0.5,0.8-0.9,1.2-1.5
					C-143.4,48.9-143.7,48.4-144,47.8z"/>
			</g>
		</g>
		<g>
			<path class="st4" d="M-187.2-14.9c-0.1-0.5-0.1-0.9-0.1-1.4c0-4.3,3.6-7.8,8-7.8c4.4,0,8.1,3.4,8.1,7.7l1.6-0.3
				c-0.2-5.1-4.5-9.2-9.7-9.2c-5.4,0-9.7,4.3-9.7,9.6c0,0.4,0,0.7,0.1,1.1c0,0.2,0.1,0.4,0.1,0.6l2.9,9.5h1.7L-187.2-14.9z"/>
		</g>
		<g>
			<polygon class="st1" points="-122.7,10.9 -122.1,12.8 -111.1,9.4 -111.7,7.5 			"/>
			<g>
				<path class="st3" d="M-133.6,53.1c4.7-1.8,7.2-6.7,6-11.4l-8.1-26.8l-1.5,0.5l8.1,26.8c1,3.8-1.3,7.8-5.1,9.3
					c-2.9,1.1-6.3,0.6-8.6-2c-0.3,0.5-0.7,1-1.2,1.5C-141.4,53.6-137.3,54.5-133.6,53.1z"/>
			</g>
			<g>
				<polygon class="st3" points="-142.9,-8.6 -144.6,-8.7 -137.9,13.4 -136.4,12.9 				"/>
			</g>
			<g>
				<polygon class="st3" points="-136.4,12.9 -137.9,13.4 -137.8,13.6 -136.3,13.1 				"/>
			</g>
			<g>
				<polygon class="st3" points="-137.3,15.4 -135.7,14.9 -135.8,14.7 -137.3,15.2 				"/>
			</g>
			<g>
				<polygon class="st4" points="-144.2,15.5 -143.6,17.1 -137.5,15.3 -138,13.6 				"/>
			</g>
			<g>
				<polygon class="st4" points="-136.1,13 -135.6,14.7 -124.6,11.3 -125.1,9.7 				"/>
			</g>
			<g>
				<polygon class="st4" points="-111.8,7.3 -112.3,5.7 -123.2,9.1 -122.7,10.7 				"/>
			</g>
			<g>
				<polygon class="st3" points="-137.8,13.6 -137.3,15.2 -135.8,14.7 -136.3,13.1 				"/>
			</g>
			<g>
				<polygon class="st4" points="-105,5.3 -105.5,3.6 -110.3,5.1 -109.9,6.8 				"/>
			</g>
			<g>
				<polygon class="st4" points="-109.9,6.8 -110.3,5.1 -110.5,5.2 -110,6.8 				"/>
			</g>
			<g>
				<polygon class="st4" points="-111.6,7.3 -112.1,5.7 -112.3,5.7 -111.8,7.3 				"/>
			</g>
			<g>
				<polygon class="st3" points="-115.4,-11 -117.1,-11.1 -112.1,5.5 -110.6,5 				"/>
			</g>
			<g>
				<polygon class="st3" points="-111,9.4 -109.4,8.9 -110,7 -111.5,7.5 				"/>
			</g>
			<g>
				<polygon class="st3" points="-98.1,52 -96.5,51.4 -108.8,10.9 -110.3,11.4 				"/>
			</g>
			<g>
				<polygon class="st4" points="-110,6.8 -110.5,5.2 -112.1,5.7 -111.6,7.3 				"/>
			</g>
			<g>
				<polygon class="st4" points="-112.1,52 -110.6,51.4 -121.7,14.9 -123.2,15.3 				"/>
			</g>
			<g>
				<polygon class="st4" points="-128.6,-8.1 -130.3,-8.1 -125,9.4 -123.5,9 				"/>
			</g>
			<g>
				<polygon class="st4" points="-122.9,11 -124.4,11.4 -123.8,13.3 -122.3,12.9 				"/>
			</g>
			<g>
				<polygon class="st4" points="-123.5,9 -125,9.4 -124.9,9.6 -123.4,9.1 				"/>
			</g>
			<g>
				<polygon class="st4" points="-122.9,10.8 -124.5,11.2 -124.4,11.4 -122.9,11 				"/>
			</g>
			<g>
				<polygon class="st4" points="-123.4,9.1 -124.9,9.6 -124.5,11.2 -122.9,10.8 				"/>
			</g>
			<g>
				<polygon class="st3" points="-127.2,14.6 -126.7,16.2 -123.5,15.2 -124,13.6 				"/>
			</g>
			<g>
				<polygon class="st3" points="-93.5,6 -94.1,4.3 -109.2,9 -108.7,10.6 				"/>
			</g>
			<g>
				<polygon class="st3" points="-122,13 -121.5,14.6 -110.6,11.2 -111.1,9.6 				"/>
			</g>
			<g>
				<polygon class="st3" points="-108.7,10.6 -109.2,9 -109.4,9.1 -108.9,10.7 				"/>
			</g>
			<g>
				<polygon class="st3" points="-111.1,9.6 -110.6,11.2 -110.4,11.2 -110.9,9.5 				"/>
			</g>
			<g>
				<polygon class="st3" points="-109.4,9.1 -110.9,9.5 -110.4,11.2 -108.9,10.7 				"/>
			</g>
			<g>
				<polygon class="st3" points="-124,13.6 -123.5,15.2 -123.3,15.1 -123.8,13.5 				"/>
			</g>
			<g>
				<polygon class="st3" points="-122.2,13 -121.7,14.7 -121.5,14.6 -122,13 				"/>
			</g>
			<g>
				<polygon class="st3" points="-123.8,13.5 -123.3,15.1 -121.7,14.7 -122.2,13 				"/>
			</g>
		</g>
		<g>
			<g>
				<path class="st3" d="M-118-14l0.9,2.9l1.7,0.1l-1.1-3.5c-0.5-1.9-0.2-3.8,0.7-5.4c-0.3-0.6-0.7-1.1-1-1.5
					C-118.2-19.3-118.7-16.6-118-14z"/>
			</g>
			<g>
				<path class="st3" d="M-111.4-23.8c4.1-1.6,9,0.1,10.8,6.1c0.1,0.5,0.3,0.9,0.4,1.4l1.7-0.5c-0.1-0.5-0.8-2.7-1-3.2
					c-1.9-4.9-7.5-7.4-12.5-5.4c-1.3,0.5-2.5,1.3-3.4,2.2c0.4,0.4,0.8,0.9,1.1,1.4C-113.6-22.7-112.6-23.4-111.4-23.8z"/>
			</g>
			<g>
				<path class="st4" d="M-114.7-17.7c0.1,0.5,0.3,0.9,0.4,1.4l1.7-0.5c-0.1-0.5-0.8-2.7-1-3.2c-0.2-0.6-0.5-1.1-0.8-1.6
					c-0.5,0.5-0.9,1.1-1.2,1.6C-115.2-19.3-114.9-18.5-114.7-17.7z"/>
			</g>
			<g>
				<path class="st4" d="M-126.1-25.4c-4.7,1.8-7.2,6.7-6,11.4l1.8,6l1.7,0l-2-6.4c-1-3.8,1.3-7.8,5.1-9.3c2.9-1.1,6.3-0.6,8.6,2
					c0.3-0.5,0.7-1,1.2-1.5C-118.3-25.9-122.4-26.9-126.1-25.4z"/>
			</g>
			<g>
				<path class="st4" d="M-115.7-23.3c-0.4,0.4-0.8,0.9-1.2,1.5c0,0.1,0.1,0.1,0.1,0.2c0.3-0.5,0.7-1,1.2-1.5
					C-115.6-23.2-115.7-23.2-115.7-23.3z"/>
			</g>
			<g>
				<path class="st4" d="M-115.6-19.9c0.3-0.6,0.7-1.1,1.2-1.6c0-0.1-0.1-0.1-0.1-0.2c-0.5,0.5-0.9,1-1.2,1.6
					C-115.7-20.1-115.6-20-115.6-19.9z"/>
			</g>
			<g>
				<path class="st4" d="M-116.7-21.6c0.4,0.4,0.7,0.9,1,1.5c0.3-0.6,0.7-1.1,1.2-1.6c-0.3-0.5-0.7-0.9-1.1-1.4
					C-116-22.7-116.4-22.2-116.7-21.6z"/>
			</g>
		</g>
	</g>
</g>
</svg>
