<?xml version="1.0" encoding="utf-8"?>
<!-- Generator: Adobe Illustrator 24.0.0, SVG Export Plug-In . SVG Version: 6.00 Build 0)  -->
<svg version="1.1" xmlns="http://www.w3.org/2000/svg" xmlns:xlink="http://www.w3.org/1999/xlink" x="0px" y="0px"
	 viewBox="0 0 100 100" style="enable-background:new 0 0 100 100;" xml:space="preserve">
<style type="text/css">
	.st0{fill:none;stroke:#B2A1A1;stroke-miterlimit:10;}
	.st1{fill:none;}
	.st2{fill:#EC0089;}
	.st3{fill:#04A7A0;}
</style>
<g id="Layer_2">
	
		<image style="overflow:visible;" width="1080" height="1350" xlink:href="AjzFlw8.jpg"  transform="matrix(1 0 0 1 -1602.3447 314.2264)">
	</image>
</g>
<g id="Layer_1">
	<rect x="-1469.8" y="-207.5" class="st0" width="38.5" height="10"/>
	<g>
		<circle class="st0" cx="-1248.8" cy="-154" r="44.5"/>
		<circle class="st0" cx="-1248.8" cy="-154" r="34.5"/>
		<path class="st0" d="M-1349.2-187.5h-32.1v0c0-5,4-9,9-9h14.1C-1353.2-196.5-1349.2-192.5-1349.2-187.5L-1349.2-187.5z"/>
		<rect x="-1334.3" y="-195.7" class="st0" width="27.6" height="10"/>
		
			<rect x="-1364.9" y="-160.9" transform="matrix(-1.836970e-16 1 -1 -1.836970e-16 -1485.228 1173.3873)" class="st0" width="71.2" height="10"/>
		
			<rect x="-1415.4" y="46.8" transform="matrix(-1.836970e-16 1 -1 -1.836970e-16 -1324.4645 1428.14)" class="st0" width="78.2" height="10"/>
		
			<rect x="-1249.4" y="44.8" transform="matrix(-1.836970e-16 1 -1 -1.836970e-16 -1157.6538 1257.3352)" class="st0" width="83.8" height="10"/>
		
			<rect x="-1175.4" y="-163" transform="matrix(-1.836970e-16 1 -1 -1.836970e-16 -1295.6703 979.6703)" class="st0" width="75.4" height="10"/>
		<rect x="-1334.3" y="-159.6" class="st0" width="27.6" height="10"/>
		<rect x="-1334.3" y="-121.6" class="st0" width="27.6" height="10"/>
		<rect x="-1343.1" y="7.6" class="st0" width="27.6" height="10"/>
		
			<rect x="-1373.7" y="42.4" transform="matrix(-1.836970e-16 1 -1 -1.836970e-16 -1290.714 1385.4728)" class="st0" width="71.2" height="10"/>
		<rect x="-1343.1" y="43.7" class="st0" width="27.6" height="10"/>
		<rect x="-1343.1" y="81.7" class="st0" width="27.6" height="10"/>
		<rect x="-1381.3" y="8.3" class="st0" width="25.4" height="8.8"/>
		
			<rect x="-1280.7" y="47.3" transform="matrix(-1.836970e-16 1 -1 -1.836970e-16 -1189.0151 1293.5275)" class="st0" width="78.9" height="10"/>
		<rect x="-1258.6" y="8.3" class="st0" width="34.6" height="8.8"/>
		
			<rect x="-1133.9" y="44.9" transform="matrix(-1.836970e-16 1 -1 -1.836970e-16 -1042.2087 1142.0549)" class="st0" width="83.6" height="10"/>
		<rect x="-1097.1" y="82.9" class="st0" width="26" height="8.8"/>
		<rect x="-1381.3" y="45.2" class="st0" width="25.4" height="8.8"/>
		<rect x="-1382.3" y="185.2" class="st0" width="33.3" height="8.8"/>
		
			<rect x="-1386.1" y="127.5" transform="matrix(-1.836970e-16 1 -1 -1.836970e-16 -1244.9955 1508.8721)" class="st0" width="18.3" height="8.8"/>
		<path class="st0" d="M-1372.7,177.3v11.5h-9.7v-13.4c0-2.7,0.9-5.3,2.5-7.3l18.6-23.7c1.6-2,2.5-4.5,2.5-7.1v-14.3h8.8v17.4
			c0,2.6-0.9,5.1-2.4,7.1l-17.8,22.7C-1371.8,172-1372.7,174.6-1372.7,177.3z"/>
		<rect x="-1142.7" y="-121.6" class="st0" width="25.4" height="10"/>
		<rect x="-1359.2" y="-187.5" class="st0" width="10" height="22"/>
		<path class="st0" d="M-1349.2-121.1h-32.1v0c0,5,4,9,9,9h14.1C-1353.2-112.1-1349.2-116.1-1349.2-121.1L-1349.2-121.1z"/>
		<rect x="-1381.3" y="-143.1" class="st0" width="10" height="22"/>
		<path class="st0" d="M-1359.2-141.9v20.8h10v-23.9c0-2.9-1.4-5.7-3.8-7.4l-16.2-11.6c-1.3-0.9-2.1-2.4-2.1-4v-19.5h-10v22.4
			c0,2.4,1.1,4.6,3,6.1l17.4,13.5C-1359.8-144.6-1359.2-143.3-1359.2-141.9z"/>
		<path class="st0" d="M-1269.1,16.7h-32.1v0c0-5,4-9,9-9h14.1C-1273.2,7.7-1269.1,11.8-1269.1,16.7L-1269.1,16.7z"/>
		<rect x="-1279.1" y="16.7" class="st0" width="10" height="22"/>
		<path class="st0" d="M-1269.1,83.1h-32.1v0c0,5,4,9,9,9h14.1C-1273.2,92.1-1269.1,88.1-1269.1,83.1L-1269.1,83.1z"/>
		<rect x="-1301.2" y="61.1" class="st0" width="10" height="22"/>
		<path class="st0" d="M-1279.1,62.3v20.8h10V59.2c0-2.9-1.4-5.7-3.8-7.4l-16.2-11.6c-1.3-0.9-2.1-2.4-2.1-4V16.7h-10v22.4
			c0,2.4,1.1,4.6,3,6.1l17.4,13.5C-1279.8,59.6-1279.1,60.9-1279.1,62.3z"/>
		<path class="st0" d="M-1372.3-93.7v49.6v21.6v1.5c0,1.1-0.9,2-2,2h-9.5v9h9.5c6.6,0,12-5.4,12-12v-0.5v-21.6v-49.6H-1372.3z"/>
		<path class="st0" d="M-1166.8-195.7v50.5v17.8v4.5c0,1.1-0.9,2-2,2h-10.6c-1.1,0-2-0.9-2-2v-22.3h-0.1v-50.5h-10v69.2h0.1v2.6
			c0,6.6,5.4,12,12,12h10.6c6.6,0,12-5.4,12-12v-3.5v-17.8v-50.5H-1166.8z"/>
		<path class="st0" d="M-1337.6-93.7l-13.4,83.7h8.8l2.2-14.1h16.1l2.2,14.1h8.8l-13.4-83.7H-1337.6z M-1338.5-32.8l6.7-41.9
			l6.7,41.9H-1338.5z"/>
		<path class="st0" d="M-1133.5,8.1l-13.4,83.7h8.8l2.2-14.1h16.1l2.2,14.1h8.8l-13.4-83.7H-1133.5z M-1134.5,69l6.7-41.9l6.7,41.9
			H-1134.5z"/>
		<polygon class="st0" points="-1272.9,-93.7 -1302.1,-93.7 -1302.1,-84.7 -1282.6,-84.7 -1302.1,-19.1 -1302.1,-10 -1272.9,-10 
			-1272.9,-19.1 -1293.3,-19.1 -1272.9,-84.7 		"/>
		<polygon class="st0" points="-1233.4,-93.7 -1262.5,-93.7 -1262.5,-84.7 -1243.1,-84.7 -1262.5,-19.1 -1262.5,-10 -1233.4,-10 
			-1233.4,-19.1 -1253.7,-19.1 -1233.4,-84.7 		"/>
		<g>
			<polyline class="st1" points="-1178.1,30.6 -1171.4,72.5 -1164.8,30.6 			"/>
			<path class="st1" d="M-1172.6,37.5"/>
			<polygon class="st0" points="-1171.4,72.5 -1181.7,7.8 -1190.5,7.8 -1177.2,91.5 -1165.7,91.5 -1152.3,7.8 -1161.2,7.8 			"/>
		</g>
		<path class="st0" d="M-1290.2,107.6c-24.6,0-44.5,19.9-44.5,44.5s19.9,44.5,44.5,44.5s44.5-19.9,44.5-44.5
			S-1265.7,107.6-1290.2,107.6z M-1290.2,186.6c-19,0-34.5-15.5-34.5-34.5s15.5-34.5,34.5-34.5s34.5,15.5,34.5,34.5
			S-1271.2,186.6-1290.2,186.6z"/>
		<g>
			<path class="st1" d="M-1362,118.8h-7.3c-1.9,0-3.4,1.5-3.4,3.4v8.9h14.1v-8.9C-1358.6,120.4-1360.1,118.8-1362,118.8z"/>
			<path class="st0" d="M-1372.7,122.2c0-1.9,1.5-3.4,3.4-3.4h7.3c1.9,0,3.4,1.5,3.4,3.4v8.9h8.7v-9.7c0-6.6-5.4-12-12-12h-7.4
				c-6.6,0-12,5.4-12,12v9.7h8.7V122.2z"/>
		</g>
		<rect x="-1234.1" y="185.2" class="st0" width="33.3" height="8.8"/>
		
			<rect x="-1237.8" y="127.5" transform="matrix(-1.836970e-16 1 -1 -1.836970e-16 -1096.7273 1360.604)" class="st0" width="18.3" height="8.8"/>
		<path class="st0" d="M-1224.4,177.3v11.5h-9.7v-13.4c0-2.7,0.9-5.3,2.5-7.3l18.6-23.7c1.6-2,2.5-4.5,2.5-7.1v-14.3h8.8v17.4
			c0,2.6-0.9,5.1-2.4,7.1l-17.8,22.7C-1223.5,172-1224.4,174.6-1224.4,177.3z"/>
		<path class="st0" d="M-1142,107.6c-24.6,0-44.5,19.9-44.5,44.5s19.9,44.5,44.5,44.5c24.6,0,44.5-19.9,44.5-44.5
			S-1117.4,107.6-1142,107.6z M-1142,186.6c-19,0-34.5-15.5-34.5-34.5s15.5-34.5,34.5-34.5s34.5,15.5,34.5,34.5
			S-1122.9,186.6-1142,186.6z"/>
		<g>
			<path class="st1" d="M-1213.7,118.8h-7.3c-1.9,0-3.4,1.5-3.4,3.4v8.9h14.1v-8.9C-1210.3,120.4-1211.9,118.8-1213.7,118.8z"/>
			<path class="st0" d="M-1224.4,122.2c0-1.9,1.5-3.4,3.4-3.4h7.3c1.9,0,3.4,1.5,3.4,3.4v8.9h8.7v-9.7c0-6.6-5.4-12-12-12h-7.4
				c-6.6,0-12,5.4-12,12v9.7h8.7V122.2z"/>
		</g>
	</g>
	<g>
		<g>
			<path class="st2" d="M-373.8-137.3c-23.1,0-41.9,18.7-41.9,41.9s18.7,41.9,41.9,41.9S-332-72.3-332-95.5
				S-350.7-137.3-373.8-137.3z M-373.8-63c-17.9,0-32.5-14.6-32.5-32.5s14.6-32.5,32.5-32.5s32.5,14.6,32.5,32.5S-355.9-63-373.8-63
				z"/>
			<polygon class="st2" points="-428.3,-125.3 -428.3,-134.7 -454.3,-134.7 -454.3,-130.7 -454.3,-125.3 -454.3,-100.8 
				-454.3,-91.4 -454.3,-65 -454.3,-63.8 -454.3,-55.6 -428.3,-55.6 -428.3,-65 -444.9,-65 -444.9,-91.4 -428.3,-91.4 
				-428.3,-100.8 -444.9,-100.8 -444.9,-125.3 			"/>
			<polygon class="st2" points="-264.6,-65 -264.6,-134.7 -274,-134.7 -274,-65 -274,-63.8 -274,-55.6 -250.1,-55.6 -250.1,-65 			
				"/>
			<path class="st2" d="M-468.3-106.3V-127c0-4.7-3.8-8.5-8.5-8.5H-490c-4.7,0-8.5,3.8-8.5,8.5v21.1c0,2.2,1,4.3,2.8,5.7l16.4,12.7
				c1,0.8,1.7,2.1,1.7,3.4v17.1c0,1.3-1.1,2.4-2.4,2.4h-6.6c-1.3,0-2.4-1.1-2.4-2.4v-18.3h-9.4v20.7c0,4.7,3.8,8.5,8.5,8.5h13.3
				c4.7,0,8.5-3.8,8.5-8.5V-87c0-2.8-1.3-5.4-3.6-7l-15.3-10.9c-1.2-0.9-1.9-2.3-1.9-3.8v-15.9c0-1.3,1.1-2.4,2.4-2.4h6.6
				c1.3,0,2.4,1.1,2.4,2.4v18.3H-468.3z"/>
			<path class="st2" d="M-296.7-134.7v47.5v16.7v4.2c0,1-0.9,1.9-1.9,1.9h-10c-1,0-1.9-0.9-1.9-1.9v-21l-0.1-47.5h-9.4l0.1,65.1v2.5
				c0,6.2,5.1,11.3,11.3,11.3h10c6.2,0,11.3-5.1,11.3-11.3v-3.3v-16.7v-47.5H-296.7z"/>
		</g>
		<g>
			<path class="st3" d="M-380.8-38.8V7.9v20.3v1.4c0,1-0.9,1.9-1.9,1.9h-8.9V40h8.9c6.2,0,11.3-5.1,11.3-11.3v-0.5V7.9v-46.6H-380.8
				z"/>
			<path class="st3" d="M-348.1-38.8L-360.7,40h8.3l2.1-13.3h15.1l2.1,13.3h8.3l-12.6-78.7H-348.1z M-349,18.5l6.3-39.4l6.3,39.4
				H-349z"/>
			<polygon class="st3" points="-287.3,-38.8 -314.7,-38.8 -314.7,-30.3 -296.4,-30.3 -314.7,31.5 -314.7,40 -287.3,40 -287.3,31.5 
				-306.5,31.5 -287.3,-30.3 			"/>
			<polygon class="st3" points="-250.1,-38.8 -277.5,-38.8 -277.5,-30.3 -259.2,-30.3 -277.5,31.5 -277.5,40 -250.1,40 -250.1,31.5 
				-269.3,31.5 -250.1,-30.3 			"/>
		</g>
		<g>
			
				<rect x="-417.8" y="91.6" transform="matrix(-1.836970e-16 1 -1 -1.836970e-16 -282.0989 474.6919)" class="st2" width="78.8" height="9.4"/>
			<polygon class="st2" points="-480,66 -480,56.6 -505.9,56.6 -505.9,60.5 -505.9,66 -505.9,90.5 -505.9,99.9 -505.9,126.3 
				-505.9,127.5 -505.9,135.7 -480,135.7 -480,126.3 -496.5,126.3 -496.5,99.9 -480,99.9 -480,90.5 -496.5,90.5 -496.5,66 			"/>
			<polygon class="st2" points="-393.9,57.2 -426.4,57.2 -426.4,65.5 -414.9,65.5 -414.9,135.7 -405.5,135.7 -405.5,65.5 
				-393.9,65.5 			"/>
			<polygon class="st2" points="-265.2,127.4 -265.2,57.1 -274.6,57.1 -274.6,127.4 -274.6,135.7 -265.2,135.7 -250.1,135.7 
				-250.1,127.4 			"/>
			<polygon class="st2" points="-518,65.5 -518,57.2 -541.9,57.2 -541.9,61.4 -541.9,65.5 -541.9,92 -541.9,100.3 -541.9,135 
				-532.5,135 -532.5,100.3 -518,100.3 -518,92 -532.5,92 -532.5,65.5 			"/>
			<path class="st2" d="M-437.2,85.7V65c0-4.7-3.8-8.5-8.5-8.5h-13.3c-4.7,0-8.5,3.8-8.5,8.5v21.1c0,2.2,1,4.3,2.8,5.7l16.4,12.7
				c1,0.8,1.7,2.1,1.7,3.4v17.1c0,1.3-1.1,2.4-2.4,2.4h-6.6c-1.3,0-2.4-1.1-2.4-2.4v-18.3h-9.4v20.7c0,4.7,3.8,8.5,8.5,8.5h13.3
				c4.7,0,8.5-3.8,8.5-8.5V105c0-2.8-1.3-5.4-3.6-7L-456,87.1c-1.2-0.9-1.9-2.3-1.9-3.8V67.4c0-1.3,1.1-2.4,2.4-2.4h6.6
				c1.3,0,2.4,1.1,2.4,2.4v18.3H-437.2z"/>
			<path class="st2" d="M-308.8,57l-12.6,78.7h8.3l2.1-13.3h15.1l2.1,13.3h8.3L-298,57H-308.8z M-309.7,114.3l6.3-39.4l6.3,39.4
				H-309.7z"/>
			<g>
				<path class="st2" d="M-345.6,84.7"/>
				<polygon class="st2" points="-344.5,117.6 -354.1,56.8 -362.4,56.8 -349.9,135.5 -339.1,135.5 -326.5,56.8 -334.8,56.8 				"/>
			</g>
		</g>
		<g>
			<path class="st3" d="M-431.4,150.6c-23.1,0-41.9,18.7-41.9,41.9s18.7,41.9,41.9,41.9c23.1,0,41.9-18.7,41.9-41.9
				S-408.3,150.6-431.4,150.6z M-431.4,224.9c-17.9,0-32.5-14.6-32.5-32.5s14.6-32.5,32.5-32.5c17.9,0,32.5,14.6,32.5,32.5
				S-413.5,224.9-431.4,224.9z"/>
			<g>
				<path class="st3" d="M-509,223.6v-7.4c0-2.5,0.8-4.9,2.4-6.9l16.7-21.4c1.5-1.9,2.3-4.2,2.3-6.7v-8.5h0v-9.1
					c0-6.2-5.1-11.3-11.3-11.3h-7c-6.2,0-11.3,5.1-11.3,11.3v1.3v7.8v9.4h8.3l-0.1-17.2v-0.5c0-1.7,1.4-3.2,3.2-3.2h6.9
					c1.7,0,3.2,1.4,3.2,3.2v0.5l-0.1,13.5c0,2.4-0.8,4.8-2.3,6.7l-17.5,22.3c-1.5,2-2.4,4.4-2.4,6.9v9.3v3.3v5h31.4v-8.3H-509z"/>
			</g>
			<g>
				<path class="st3" d="M-368.8,223.6v-7.4c0-2.5,0.8-4.9,2.4-6.9l16.7-21.4c1.5-1.9,2.3-4.2,2.3-6.7v-8.5h0v-9.1
					c0-6.2-5.1-11.3-11.3-11.3h-7c-6.2,0-11.3,5.1-11.3,11.3v1.3v7.8v9.4h8.3l-0.1-17.2v-0.5c0-1.7,1.4-3.2,3.2-3.2h6.9
					c1.7,0,3.2,1.4,3.2,3.2v0.5l-0.1,13.5c0,2.4-0.8,4.8-2.3,6.7l-17.5,22.3c-1.5,2-2.4,4.4-2.4,6.9v9.3v3.3v5h31.4v-8.3H-368.8z"/>
			</g>
			<path class="st3" d="M-291.9,150.6c-23.1,0-41.9,18.7-41.9,41.9s18.7,41.9,41.9,41.9c23.1,0,41.9-18.7,41.9-41.9
				S-268.8,150.6-291.9,150.6z M-291.9,224.9c-17.9,0-32.5-14.6-32.5-32.5s14.6-32.5,32.5-32.5c17.9,0,32.5,14.6,32.5,32.5
				S-274,224.9-291.9,224.9z"/>
		</g>
	</g>
	<path class="st0" d="M-1543.4,846.1c-0.5-2.4-0.7-4.9-0.7-7.4c0-22.2,18.4-40.3,41.1-40.3s41.9,17.6,41.9,39.9l8.1-1.5
		c-1-26.3-23-47.4-50.1-47.4c-27.7,0-50.1,22.1-50.1,49.3c0,1.9,0.1,3.7,0.3,5.5c0.1,1,0.3,2,0.6,2.9l89.4,293.1
		c5,19.6-6.5,40.4-26.2,47.9c-21.2,8.1-46.6-0.6-55.8-31.7c-0.7-2.5-1.6-4.8-2-7.3l-8.6,2.8c0.5,2.6,4.2,14,5.2,16.6
		c9.8,25.4,38.7,38,64.5,28c24-9.3,36.9-34.7,30.7-58.7L-1543.4,846.1z"/>
	<path class="st0" d="M-1472,846.1c-0.5-2.4-0.7-4.9-0.7-7.4c0-22.2,18.4-40.3,41.1-40.3s41.9,17.6,41.9,39.9l8.1-1.5
		c-1-26.3-23-47.4-50.1-47.4c-27.7,0-50.1,22.1-50.1,49.3c0,1.9,0.1,3.7,0.3,5.5c0.1,1,0.3,2,0.6,2.9l89.4,293.1
		c5,19.6-6.5,40.4-26.2,47.9c-21.2,8.1-46.6-0.6-55.8-31.7c-0.7-2.5-1.6-4.8-2-7.3l-8.6,2.8c0.5,2.6,4.2,14,5.2,16.6
		c9.8,25.4,38.7,38,64.5,28c24-9.3,36.9-34.7,30.7-58.7L-1472,846.1z"/>
	<polygon class="st0" points="-1721.1,1140.4 -1810.6,846 -1810.2,844.1 -1802.6,841.9 -1712.7,1137.9 	"/>
	<g>
		<path class="st0" d="M-1710.9,836.8c-1-26.3-23-47.4-50.1-47.4c-27.7,0-50.1,22.1-50.1,49.3c0,2.7,0.2,5.4,0.7,8.1l9.1-0.5
			c-0.5-2.4-0.7-5-0.7-7.5c0-22.2,18.4-40.3,41.1-40.3s41.9,17.6,41.9,39.9L-1710.9,836.8z"/>
	</g>
	<g>
		<path class="st0" d="M-1713.9,1134.4c8.5,25-4.5,52.5-29.7,62.2c-25.8,9.9-54.7-2.6-64.5-28c-1-2.6-4.7-14-5.2-16.6l8.6-2.8
			c0.4,2.4,1.3,4.8,2,7.3c9.2,31.1,34.6,39.8,55.8,31.7s32.8-31.5,24.8-52.3L-1713.9,1134.4z"/>
	</g>
	<g>
		<path class="st0" d="M-1412,797.5l-8.1,3.1l103.1,339.6c5,19.6-6.5,40.4-26.2,47.9c-21.2,8.1-46.6-0.6-55.8-31.7
			c-0.7-2.5-1.6-4.8-2-7.3l-8.6,2.8c0.5,2.6,4.2,14,5.2,16.6c9.8,25.4,38.7,38,64.5,28c24-9.3,36.9-34.7,30.7-58.7L-1412,797.5z"/>
	</g>
	<g>
		<path class="st0" d="M-1342.8,787l-8.1,3.1l106.3,350.2c5,19.6-6.5,40.4-26.2,47.9c-21.2,8.1-46.6-0.6-55.8-31.7
			c-0.7-2.5-1.6-4.8-2-7.3l-8.6,2.8c0.5,2.6,4.2,14,5.2,16.6c9.8,25.4,38.7,38,64.5,28c24-9.3,36.9-34.7,30.7-58.7L-1342.8,787z"/>
	</g>
	<g>
		<path class="st0" d="M-1084.4,1191l8.1-3.1l-103.1-339.6c-5-19.6,6.5-40.4,26.2-47.9c21.2-8.1,46.6,0.6,55.8,31.7
			c0.7,2.5,1.6,4.8,2,7.3l8.6-2.8c-0.5-2.6-4.2-14-5.2-16.6c-9.8-25.4-38.7-38-64.5-28c-24,9.3-36.9,34.7-30.7,58.7L-1084.4,1191z"
			/>
	</g>
	<g>
		<path class="st0" d="M-1156.9,1191l8.1-3.1l-103.1-339.6c-5-19.6,6.5-40.4,26.2-47.9c21.2-8.1,46.6,0.6,55.8,31.7
			c0.7,2.5,1.6,4.8,2,7.3l8.6-2.8c-0.5-2.6-4.2-14-5.2-16.6c-9.8-25.4-38.7-38-64.5-28c-24,9.3-36.9,34.7-30.7,58.7L-1156.9,1191z"
			/>
	</g>
	<polygon class="st0" points="-1721.1,1140.4 -1810.6,846 -1810.2,844.1 -1802.6,841.9 -1712.7,1137.9 	"/>
	<g>
		<line class="st0" x1="-1122.7" y1="941.8" x2="-1120" y2="950.2"/>
		<polygon class="st0" points="-1122.7,941.8 -1321.8,1002.9 -1319.1,1011.3 -1120,950.2 		"/>
	</g>
	<g>
		<line class="st0" x1="-1063.7" y1="945.4" x2="-1061" y2="953.7"/>
		<polygon class="st0" points="-1063.7,945.4 -1234.4,998.1 -1231.7,1006.5 -1061,953.7 		"/>
	</g>
	<g>
		<line class="st3" x1="43.1" y1="941.8" x2="45.8" y2="950.2"/>
		<line class="st2" x1="102.1" y1="945.4" x2="104.8" y2="953.7"/>
		<g>
			<g>
				<g>
					<path class="st3" d="M-224.5,898.9l8.7-0.5l-28.1-93c-3.2-1.9-6.7-3.5-10.4-4.5L-224.5,898.9z"/>
				</g>
				<g>
					<path class="st2" d="M-243,804.9c11.4,7.1,19.1,19.3,19.1,33.3l8.1-1.5c-1-26.3-23-47.4-50.1-47.4c-13.6,0-25.9,5.3-34.9,14
						c2.1,2.1,4.1,4.4,5.8,6.9c7.4-7.3,17.8-11.9,29.1-11.9c3.8,0,7.4,0.5,10.9,1.4l9.3-3.6L-243,804.9z"/>
				</g>
				<g>
					<path class="st2" d="M-244.3,804.1c0.4,0.2,0.9,0.5,1.3,0.8l-2.6-8.7l-9.3,3.6c0.5,0.1,1.1,0.3,1.6,0.5l7-2.7L-244.3,804.1z"/>
				</g>
				<g>
					<path class="st2" d="M-246.2,797.5l-7,2.7c3.2,1,6.2,2.3,9,3.9L-246.2,797.5z"/>
				</g>
			</g>
			<g>
				<path class="st2" d="M-307.6,811.4c-5.3,7.8-8.4,17.2-8.4,27.3c0,1.9,0.1,3.7,0.3,5.5c0.1,1,0.3,2,0.6,2.9l9.2,30.3h9l-9.5-31.4
					c-0.5-2.4-0.7-4.9-0.7-7.4c0-7.2,1.9-13.9,5.3-19.8C-303.3,816.2-305.3,813.7-307.6,811.4z"/>
			</g>
		</g>
		<g>
			<polygon class="st2" points="-177,787 -185.1,790.1 -158.4,878.1 -149.3,878.6 			"/>
		</g>
		<g>
			<g>
				<path class="st3" d="M-323.1,1188.2c-21.2,8.1-46.6-0.6-55.8-31.7c-0.7-2.5-1.6-4.8-2-7.3l-8.6,2.8c0.5,2.6,4.2,14,5.2,16.6
					c9.8,25.4,38.7,38,64.5,28c6.5-2.5,12.1-6.2,16.8-10.7c-2.1-2.1-4-4.4-5.6-6.9C-312.7,1182.9-317.6,1186.1-323.1,1188.2z"/>
			</g>
			<g>
				<path class="st3" d="M-289.1,1137.9l-73.3-241.7h-9l74.5,244.1c2.5,10,0.8,20.3-4.2,29c1.6,2.8,3.5,5.4,5.5,7.7
					C-288.3,1165.6-285.6,1151.5-289.1,1137.9z"/>
			</g>
			<g>
				<path class="st2" d="M-217.8,1137.9l-78.9-260.5h-9l80.2,262.8c2.3,9,1.1,18.1-2.7,26.2c1.5,3.1,3.3,5.9,5.3,8.4
					C-216.6,1164-214.5,1150.7-217.8,1137.9z"/>
			</g>
			<g>
				<path class="st2" d="M-251.8,1188.2c-14.8,5.7-31.7,3.1-43.7-9.6c-1.8,2.6-3.8,5.1-6.1,7.3c13.5,13.1,34.1,18,53,10.7
					c7.2-2.8,13.4-7,18.4-12.2c-2-2.2-3.8-4.6-5.4-7.2C-239.9,1182-245.4,1185.8-251.8,1188.2z"/>
			</g>
			<g>
				<path class="st2" d="M-307.5,1156.6c-0.7-2.5-1.6-4.8-2-7.3l-8.6,2.8c0.5,2.6,4.2,14,5.2,16.6c1.2,3.2,2.8,6.2,4.5,8.9
					c2.4-2.5,4.6-5.2,6.3-8.1C-304.3,1165.6-306.1,1161.4-307.5,1156.6z"/>
			</g>
			<g>
				<path class="st2" d="M-302.2,1169.4c-1.7,2.9-3.8,5.7-6.3,8.1c0.2,0.3,0.4,0.5,0.5,0.8c2.4-2.4,4.5-5.1,6.3-8
					C-301.8,1170-302,1169.7-302.2,1169.4z"/>
			</g>
			<g>
				<path class="st2" d="M-296.2,1177.8c-1.8,2.6-3.8,5.1-6.1,7.4c0.2,0.2,0.5,0.5,0.7,0.7c2.3-2.3,4.3-4.7,6.1-7.3
					C-295.7,1178.3-295.9,1178.1-296.2,1177.8z"/>
			</g>
			<g>
				<path class="st2" d="M-301.6,1170.3c-1.7,2.9-3.9,5.6-6.3,8c1.7,2.5,3.6,4.8,5.6,6.9c2.3-2.3,4.3-4.8,6.1-7.4
					C-298.2,1175.6-300,1173.1-301.6,1170.3z"/>
			</g>
			<g>
				<path class="st3" d="M-233.2,1156.6c-0.7-2.5-1.6-4.8-2-7.3l-8.6,2.8c0.5,2.6,4.2,14,5.2,16.6c1,2.5,2.1,4.8,3.4,7
					c2.4-2.7,4.4-5.8,6-9C-230.8,1163.6-232.2,1160.2-233.2,1156.6z"/>
			</g>
			<g>
				<path class="st3" d="M-177.5,1188.2c-15.5,6-33.4,2.9-45.4-11.5c-1.7,2.7-3.7,5.3-5.9,7.7c13.4,14.3,34.9,19.8,54.5,12.2
					c6.8-2.6,12.6-6.5,17.4-11.3c-2-2.2-3.9-4.5-5.5-7C-166.5,1182.6-171.6,1186-177.5,1188.2z"/>
			</g>
			<g>
				<path class="st3" d="M-143.5,1137.9l-72.3-239.5l-8.7,0.5l73.2,241.4c2.4,9.6,0.9,19.5-3.6,28c1.6,2.9,3.4,5.6,5.4,7.9
					C-142.5,1165-140.1,1151.2-143.5,1137.9z"/>
			</g>
			<g>
				<path class="st3" d="M-223.6,1175.9c-1.7,2.8-3.7,5.4-5.9,7.8c0.2,0.3,0.5,0.5,0.7,0.7c2.2-2.4,4.2-5,5.9-7.7
					C-223.1,1176.4-223.3,1176.1-223.6,1175.9z"/>
			</g>
			<g>
				<path class="st3" d="M-229.3,1166.6c-1.6,3.2-3.6,6.3-6,9c0.2,0.3,0.3,0.6,0.5,0.8c2.4-2.7,4.4-5.7,6-8.8
					C-229,1167.3-229.2,1167-229.3,1166.6z"/>
			</g>
			<g>
				<path class="st3" d="M-228.8,1167.6c-1.6,3.2-3.6,6.1-6,8.8c1.6,2.6,3.4,5,5.4,7.2c2.2-2.4,4.2-5.1,5.9-7.8
					C-225.5,1173.4-227.3,1170.7-228.8,1167.6z"/>
			</g>
			<g>
				<path class="st2" d="M-160.7,1156.6c-0.7-2.5-1.6-4.8-2-7.3l-8.6,2.8c0.5,2.6,4.2,14,5.2,16.6c1.1,2.9,2.5,5.6,4.1,8.2
					c2.4-2.6,4.5-5.4,6.2-8.5C-157.8,1164.8-159.4,1160.9-160.7,1156.6z"/>
			</g>
			<g>
				<path class="st2" d="M-156.1,1184.6c0.2,0.2,0.5,0.5,0.7,0.7c2.2-2.3,4.3-4.8,6-7.5c-0.2-0.3-0.5-0.5-0.7-0.8
					C-151.8,1179.8-153.8,1182.3-156.1,1184.6z"/>
			</g>
			<g>
				<path class="st2" d="M-155.9,1168.3c-1.7,3-3.7,5.9-6.2,8.5c0.2,0.3,0.3,0.6,0.5,0.8c2.4-2.5,4.5-5.3,6.2-8.3
					C-155.6,1169-155.8,1168.7-155.9,1168.3z"/>
			</g>
			<g>
				<path class="st2" d="M-155.4,1169.3c-1.7,3-3.8,5.8-6.2,8.3c1.6,2.5,3.5,4.9,5.5,7c2.3-2.3,4.3-4.9,6-7.6
					C-152,1174.8-153.8,1172.2-155.4,1169.3z"/>
			</g>
		</g>
		<g>
			<path class="st3" d="M-377.6,846.1c-0.5-2.4-0.7-4.9-0.7-7.4c0-22.2,18.4-40.3,41.1-40.3s41.9,17.6,41.9,39.9l8.1-1.5
				c-1-26.3-23-47.4-50.1-47.4c-27.7,0-50.1,22.1-50.1,49.3c0,1.9,0.1,3.7,0.3,5.5c0.1,1,0.3,2,0.6,2.9l15,49h9L-377.6,846.1z"/>
		</g>
		<g>
			<polygon class="st1" points="-45.3,979.2 -42.4,988.9 14.1,971.5 11.2,961.8 			"/>
			<g>
				<path class="st2" d="M-101.7,1196.6c24-9.3,36.9-34.7,30.7-58.7l-41.7-138.1l-8,2.4l41.9,138c5,19.6-6.5,40.4-26.2,47.9
					c-15.1,5.8-32.4,3-44.4-10.4c-1.8,2.7-3.8,5.2-6,7.5C-141.9,1198.9-120.9,1204-101.7,1196.6z"/>
			</g>
			<g>
				<polygon class="st2" points="-149.3,878.6 -158.4,878.1 -123.8,992 -115.8,989.5 				"/>
			</g>
			<g>
				<polygon class="st2" points="-115.8,989.5 -123.8,992 -123.5,992.9 -115.5,990.5 				"/>
			</g>
			<g>
				<polygon class="st2" points="-120.7,1002.3 -112.7,999.9 -113,998.9 -120.9,1001.3 				"/>
			</g>
			<g>
				<polygon class="st3" points="-156,1002.9 -153.3,1011.3 -121.9,1001.6 -124.5,993.2 				"/>
			</g>
			<g>
				<polygon class="st3" points="-114.6,990.2 -112,998.6 -55.5,981.3 -58,972.8 				"/>
			</g>
			<g>
				<polygon class="st3" points="10.9,960.9 8.4,952.5 -48.2,969.8 -45.6,978.2 				"/>
			</g>
			<g>
				<polygon class="st2" points="-123.5,992.9 -120.9,1001.3 -113,998.9 -115.5,990.5 				"/>
			</g>
			<g>
				<polygon class="st3" points="45.8,950.2 43.1,941.8 18.2,949.5 20.7,957.9 				"/>
			</g>
			<g>
				<polygon class="st3" points="20.7,957.9 18.2,949.5 17.2,949.8 19.8,958.2 				"/>
			</g>
			<g>
				<polygon class="st3" points="11.9,960.6 9.3,952.2 8.4,952.5 10.9,960.9 				"/>
			</g>
			<g>
				<polygon class="st2" points="-8.1,866.2 -16.7,865.8 9,951.2 16.9,948.8 				"/>
			</g>
			<g>
				<polygon class="st2" points="15.1,971.2 23,968.8 20.1,959.1 12.1,961.6 				"/>
			</g>
			<g>
				<polygon class="st2" points="81.4,1191 89.5,1187.9 26.1,979.1 18.2,981.5 				"/>
			</g>
			<g>
				<polygon class="st3" points="19.8,958.2 17.2,949.8 9.3,952.2 11.9,960.6 				"/>
			</g>
			<g>
				<polygon class="st3" points="8.9,1191 17,1187.9 -40.2,999.6 -48.2,1002 				"/>
			</g>
			<g>
				<polygon class="st3" points="-76,881.5 -84.6,881.5 -57.3,971.6 -49.4,969.1 				"/>
			</g>
			<g>
				<polygon class="st3" points="-46.3,979.5 -54.2,981.9 -51.3,991.7 -43.3,989.2 				"/>
			</g>
			<g>
				<polygon class="st3" points="-49.4,969.1 -57.3,971.6 -57.1,972.5 -49.1,970.1 				"/>
			</g>
			<g>
				<polygon class="st3" points="-46.6,978.5 -54.5,981 -54.2,981.9 -46.3,979.5 				"/>
			</g>
			<g>
				<polygon class="st3" points="-49.1,970.1 -57.1,972.5 -54.5,981 -46.6,978.5 				"/>
			</g>
			<g>
				<polygon class="st2" points="-68.6,998.1 -65.9,1006.5 -49.4,1001.4 -51.9,992.9 				"/>
			</g>
			<g>
				<polygon class="st2" points="104.8,953.7 102.1,945.4 24.2,969.4 26.8,977.8 				"/>
			</g>
			<g>
				<polygon class="st2" points="-42.1,989.9 -39.5,998.3 16.9,980.9 14.4,972.5 				"/>
			</g>
			<g>
				<polygon class="st2" points="26.8,977.8 24.2,969.4 23.3,969.7 25.8,978.1 				"/>
			</g>
			<g>
				<polygon class="st2" points="14.4,972.5 16.9,980.9 17.9,980.6 15.4,972.2 				"/>
			</g>
			<g>
				<polygon class="st2" points="23.3,969.7 15.4,972.2 17.9,980.6 25.8,978.1 				"/>
			</g>
			<g>
				<polygon class="st2" points="-51.9,992.9 -49.4,1001.4 -48.4,1001.1 -51,992.7 				"/>
			</g>
			<g>
				<polygon class="st2" points="-43,990.2 -40.5,998.6 -39.5,998.3 -42.1,989.9 				"/>
			</g>
			<g>
				<polygon class="st2" points="-51,992.7 -48.4,1001.1 -40.5,998.6 -43,990.2 				"/>
			</g>
		</g>
		<g>
			<g>
				<path class="st2" d="M-21.3,850.7l4.6,15.2l8.6,0.4l-5.4-17.9c-2.4-9.6-0.9-19.5,3.6-28c-1.6-2.9-3.4-5.6-5.4-7.9
					C-22.3,823.6-24.8,837.4-21.3,850.7z"/>
			</g>
			<g>
				<path class="st2" d="M12.6,800.4c21.2-8.1,46.6,0.6,55.8,31.7c0.7,2.5,1.6,4.8,2,7.3l8.6-2.8c-0.5-2.6-4.2-14-5.2-16.6
					c-9.8-25.4-38.7-38-64.5-28c-6.8,2.6-12.6,6.5-17.4,11.2c2,2.2,3.9,4.5,5.5,7C1.7,806,6.8,802.6,12.6,800.4z"/>
			</g>
			<g>
				<path class="st3" d="M-4.1,832c0.7,2.5,1.6,4.8,2,7.3l8.6-2.8C6,834,2.4,822.6,1.4,820c-1.1-2.9-2.5-5.6-4.1-8.2
					c-2.4,2.6-4.5,5.4-6.2,8.5C-7,823.7-5.4,827.7-4.1,832z"/>
			</g>
			<g>
				<path class="st3" d="M-63.1,792c-24,9.3-36.9,34.7-30.7,58.7l9.3,30.8l8.5,0.1l-10.1-33.2c-5-19.6,6.5-40.4,26.2-47.9
					c15.1-5.8,32.4-3,44.4,10.4c1.8-2.7,3.8-5.2,6-7.5C-22.9,789.6-43.9,784.5-63.1,792z"/>
			</g>
			<g>
				<path class="st3" d="M-9.5,803.2c-2.2,2.3-4.3,4.8-6,7.5c0.2,0.3,0.5,0.5,0.7,0.8c1.8-2.7,3.8-5.2,6-7.6
					C-9,803.7-9.2,803.5-9.5,803.2z"/>
			</g>
			<g>
				<path class="st3" d="M-8.9,820.2c1.7-3,3.7-5.9,6.2-8.5c-0.2-0.3-0.3-0.6-0.5-0.8c-2.4,2.5-4.5,5.3-6.2,8.3
					C-9.2,819.6-9.1,819.9-8.9,820.2z"/>
			</g>
			<g>
				<path class="st3" d="M-14.8,811.5c2,2.3,3.8,4.9,5.4,7.8c1.7-3,3.8-5.8,6.2-8.3c-1.6-2.5-3.5-4.9-5.5-7
					C-11,806.3-13.1,808.8-14.8,811.5z"/>
			</g>
		</g>
	</g>
	<g>
		<line class="st3" x1="86" y1="40" x2="86.5" y2="41.6"/>
		<line class="st2" x1="97.4" y1="40.7" x2="98" y2="42.3"/>
		<g>
			<g>
				<g>
					<path class="st3" d="M34.1,31.6l1.7-0.1l-5.4-18c-0.6-0.4-1.3-0.7-2-0.9L34.1,31.6z"/>
				</g>
				<g>
					<path class="st2" d="M30.5,13.4c2.2,1.4,3.7,3.7,3.7,6.5l1.6-0.3c-0.2-5.1-4.5-9.2-9.7-9.2c-2.6,0-5,1-6.8,2.7
						c0.4,0.4,0.8,0.9,1.1,1.3c1.4-1.4,3.4-2.3,5.7-2.3c0.7,0,1.4,0.1,2.1,0.3l1.8-0.7L30.5,13.4z"/>
				</g>
				<g>
					<path class="st2" d="M30.2,13.2c0.1,0,0.2,0.1,0.2,0.1L30,11.7l-1.8,0.7c0.1,0,0.2,0.1,0.3,0.1l1.4-0.5L30.2,13.2z"/>
				</g>
				<g>
					<path class="st2" d="M29.8,12l-1.4,0.5c0.6,0.2,1.2,0.4,1.7,0.8L29.8,12z"/>
				</g>
			</g>
			<g>
				<path class="st2" d="M17.9,14.7c-1,1.5-1.6,3.3-1.6,5.3c0,0.4,0,0.7,0.1,1.1c0,0.2,0.1,0.4,0.1,0.6l1.8,5.9H20l-1.8-6.1
					c-0.1-0.5-0.1-0.9-0.1-1.4c0-1.4,0.4-2.7,1-3.8C18.8,15.6,18.4,15.1,17.9,14.7z"/>
			</g>
		</g>
		<g>
			<polygon class="st2" points="43.3,9.9 41.7,10.5 46.9,27.6 48.7,27.7 			"/>
		</g>
		<g>
			<g>
				<path class="st3" d="M14.9,87.8c-4.1,1.6-9-0.1-10.8-6.1c-0.1-0.5-0.3-0.9-0.4-1.4L2,80.8c0.1,0.5,0.8,2.7,1,3.2
					c1.9,4.9,7.5,7.4,12.5,5.4c1.3-0.5,2.4-1.2,3.3-2.1c-0.4-0.4-0.8-0.9-1.1-1.3C16.9,86.8,16,87.4,14.9,87.8z"/>
			</g>
			<g>
				<path class="st3" d="M21.5,78L7.3,31.1H5.6L20,78.5c0.5,1.9,0.2,3.9-0.8,5.6c0.3,0.5,0.7,1,1.1,1.5C21.7,83.4,22.2,80.7,21.5,78
					z"/>
			</g>
			<g>
				<path class="st2" d="M35.4,78L20,27.5h-1.7l15.6,51c0.4,1.7,0.2,3.5-0.5,5.1c0.3,0.6,0.6,1.1,1,1.6C35.6,83.1,36,80.5,35.4,78z"
					/>
			</g>
			<g>
				<path class="st2" d="M28.8,87.8c-2.9,1.1-6.2,0.6-8.5-1.9c-0.3,0.5-0.7,1-1.2,1.4c2.6,2.6,6.6,3.5,10.3,2.1
					c1.4-0.5,2.6-1.4,3.6-2.4c-0.4-0.4-0.7-0.9-1-1.4C31.1,86.6,30,87.3,28.8,87.8z"/>
			</g>
			<g>
				<path class="st2" d="M17.9,81.6c-0.1-0.5-0.3-0.9-0.4-1.4l-1.7,0.5c0.1,0.5,0.8,2.7,1,3.2c0.2,0.6,0.5,1.2,0.9,1.7
					c0.5-0.5,0.9-1,1.2-1.6C18.6,83.4,18.2,82.6,17.9,81.6z"/>
			</g>
			<g>
				<path class="st2" d="M19,84.1c-0.3,0.6-0.7,1.1-1.2,1.6c0,0.1,0.1,0.1,0.1,0.2c0.5-0.5,0.9-1,1.2-1.6C19.1,84.3,19,84.2,19,84.1
					z"/>
			</g>
			<g>
				<path class="st2" d="M20.1,85.8c-0.3,0.5-0.7,1-1.2,1.4c0,0,0.1,0.1,0.1,0.1c0.4-0.4,0.8-0.9,1.2-1.4
					C20.2,85.9,20.2,85.8,20.1,85.8z"/>
			</g>
			<g>
				<path class="st2" d="M19.1,84.3c-0.3,0.6-0.7,1.1-1.2,1.6c0.3,0.5,0.7,0.9,1.1,1.3c0.4-0.4,0.8-0.9,1.2-1.4
					C19.8,85.3,19.4,84.9,19.1,84.3z"/>
			</g>
			<g>
				<path class="st3" d="M32.4,81.6c-0.1-0.5-0.3-0.9-0.4-1.4l-1.7,0.5c0.1,0.5,0.8,2.7,1,3.2c0.2,0.5,0.4,0.9,0.7,1.4
					c0.5-0.5,0.9-1.1,1.2-1.7C32.8,83,32.6,82.4,32.4,81.6z"/>
			</g>
			<g>
				<path class="st3" d="M43.2,87.8c-3,1.2-6.5,0.6-8.8-2.2c-0.3,0.5-0.7,1-1.1,1.5c2.6,2.8,6.8,3.8,10.6,2.4
					c1.3-0.5,2.5-1.3,3.4-2.2c-0.4-0.4-0.8-0.9-1.1-1.4C45.3,86.7,44.3,87.4,43.2,87.8z"/>
			</g>
			<g>
				<path class="st3" d="M49.8,78l-14-46.5l-1.7,0.1l14.2,46.8c0.5,1.9,0.2,3.8-0.7,5.4c0.3,0.6,0.7,1.1,1,1.5
					C50,83.3,50.4,80.6,49.8,78z"/>
			</g>
			<g>
				<path class="st3" d="M34.2,85.4c-0.3,0.5-0.7,1-1.1,1.5c0,0,0.1,0.1,0.1,0.1c0.4-0.5,0.8-1,1.1-1.5
					C34.3,85.5,34.3,85.4,34.2,85.4z"/>
			</g>
			<g>
				<path class="st3" d="M33.1,83.6c-0.3,0.6-0.7,1.2-1.2,1.7c0,0.1,0.1,0.1,0.1,0.2c0.5-0.5,0.9-1.1,1.2-1.7
					C33.2,83.7,33.2,83.7,33.1,83.6z"/>
			</g>
			<g>
				<path class="st3" d="M33.2,83.8c-0.3,0.6-0.7,1.2-1.2,1.7c0.3,0.5,0.7,1,1,1.4c0.4-0.5,0.8-1,1.1-1.5
					C33.9,84.9,33.5,84.4,33.2,83.8z"/>
			</g>
			<g>
				<path class="st2" d="M46.4,81.6c-0.1-0.5-0.3-0.9-0.4-1.4l-1.7,0.5c0.1,0.5,0.8,2.7,1,3.2c0.2,0.6,0.5,1.1,0.8,1.6
					c0.5-0.5,0.9-1.1,1.2-1.6C47,83.3,46.7,82.5,46.4,81.6z"/>
			</g>
			<g>
				<path class="st2" d="M47.3,87.1c0,0,0.1,0.1,0.1,0.1c0.4-0.4,0.8-0.9,1.2-1.5c0-0.1-0.1-0.1-0.1-0.2
					C48.2,86.1,47.8,86.6,47.3,87.1z"/>
			</g>
			<g>
				<path class="st2" d="M47.4,83.9c-0.3,0.6-0.7,1.1-1.2,1.6c0,0.1,0.1,0.1,0.1,0.2c0.5-0.5,0.9-1,1.2-1.6
					C47.4,84.1,47.4,84,47.4,83.9z"/>
			</g>
			<g>
				<path class="st2" d="M47.5,84.1c-0.3,0.6-0.7,1.1-1.2,1.6c0.3,0.5,0.7,0.9,1.1,1.4c0.4-0.5,0.8-0.9,1.2-1.5
					C48.1,85.2,47.8,84.7,47.5,84.1z"/>
			</g>
		</g>
		<g>
			<path class="st3" d="M4.3,21.4c-0.1-0.5-0.1-0.9-0.1-1.4c0-4.3,3.6-7.8,8-7.8s8.1,3.4,8.1,7.7l1.6-0.3c-0.2-5.1-4.5-9.2-9.7-9.2
				c-5.4,0-9.7,4.3-9.7,9.6c0,0.4,0,0.7,0.1,1.1c0,0.2,0.1,0.4,0.1,0.6l2.9,9.5h1.7L4.3,21.4z"/>
		</g>
		<g>
			<polygon class="st1" points="68.8,47.2 69.4,49.1 80.4,45.7 79.8,43.9 			"/>
			<g>
				<path class="st2" d="M57.9,89.4c4.7-1.8,7.2-6.7,6-11.4l-8.1-26.8l-1.5,0.5l8.1,26.8c1,3.8-1.3,7.8-5.1,9.3
					c-2.9,1.1-6.3,0.6-8.6-2c-0.3,0.5-0.7,1-1.2,1.5C50.1,89.9,54.2,90.9,57.9,89.4z"/>
			</g>
			<g>
				<polygon class="st2" points="48.7,27.7 46.9,27.6 53.6,49.7 55.2,49.2 				"/>
			</g>
			<g>
				<polygon class="st2" points="55.2,49.2 53.6,49.7 53.7,49.9 55.2,49.4 				"/>
			</g>
			<g>
				<polygon class="st2" points="54.2,51.7 55.8,51.2 55.7,51 54.2,51.5 				"/>
			</g>
			<g>
				<polygon class="st3" points="47.3,51.8 47.9,53.4 54,51.6 53.5,49.9 				"/>
			</g>
			<g>
				<polygon class="st3" points="55.4,49.4 55.9,51 66.9,47.6 66.4,46 				"/>
			</g>
			<g>
				<polygon class="st3" points="79.7,43.7 79.3,42 68.3,45.4 68.8,47 				"/>
			</g>
			<g>
				<polygon class="st2" points="53.7,49.9 54.2,51.5 55.7,51 55.2,49.4 				"/>
			</g>
			<g>
				<polygon class="st3" points="86.5,41.6 86,40 81.2,41.4 81.7,43.1 				"/>
			</g>
			<g>
				<polygon class="st3" points="81.7,43.1 81.2,41.4 81,41.5 81.5,43.1 				"/>
			</g>
			<g>
				<polygon class="st3" points="79.9,43.6 79.4,42 79.3,42 79.7,43.7 				"/>
			</g>
			<g>
				<polygon class="st2" points="76.1,25.3 74.4,25.2 79.4,41.8 80.9,41.3 				"/>
			</g>
			<g>
				<polygon class="st2" points="80.6,45.7 82.1,45.2 81.5,43.3 80,43.8 				"/>
			</g>
			<g>
				<polygon class="st2" points="93.4,88.3 95,87.7 82.7,47.2 81.2,47.7 				"/>
			</g>
			<g>
				<polygon class="st3" points="81.5,43.1 81,41.5 79.4,42 79.9,43.6 				"/>
			</g>
			<g>
				<polygon class="st3" points="79.4,88.3 80.9,87.7 69.8,51.2 68.3,51.7 				"/>
			</g>
			<g>
				<polygon class="st3" points="62.9,28.3 61.2,28.2 66.5,45.7 68,45.3 				"/>
			</g>
			<g>
				<polygon class="st3" points="68.7,47.3 67.1,47.7 67.7,49.6 69.2,49.2 				"/>
			</g>
			<g>
				<polygon class="st3" points="68,45.3 66.5,45.7 66.6,45.9 68.1,45.5 				"/>
			</g>
			<g>
				<polygon class="st3" points="68.6,47.1 67.1,47.6 67.1,47.7 68.7,47.3 				"/>
			</g>
			<g>
				<polygon class="st3" points="68.1,45.5 66.6,45.9 67.1,47.6 68.6,47.1 				"/>
			</g>
			<g>
				<polygon class="st2" points="64.3,50.9 64.8,52.5 68,51.5 67.6,49.9 				"/>
			</g>
			<g>
				<polygon class="st2" points="98,42.3 97.4,40.7 82.3,45.3 82.8,47 				"/>
			</g>
			<g>
				<polygon class="st2" points="69.5,49.3 70,50.9 80.9,47.5 80.4,45.9 				"/>
			</g>
			<g>
				<polygon class="st2" points="82.8,47 82.3,45.3 82.2,45.4 82.6,47 				"/>
			</g>
			<g>
				<polygon class="st2" points="80.4,45.9 80.9,47.5 81.1,47.5 80.6,45.9 				"/>
			</g>
			<g>
				<polygon class="st2" points="82.2,45.4 80.6,45.9 81.1,47.5 82.6,47 				"/>
			</g>
			<g>
				<polygon class="st2" points="67.6,49.9 68,51.5 68.2,51.5 67.7,49.8 				"/>
			</g>
			<g>
				<polygon class="st2" points="69.3,49.4 69.8,51 70,50.9 69.5,49.3 				"/>
			</g>
			<g>
				<polygon class="st2" points="67.7,49.8 68.2,51.5 69.8,51 69.3,49.4 				"/>
			</g>
		</g>
		<g>
			<g>
				<path class="st2" d="M73.5,22.3l0.9,2.9l1.7,0.1L75,21.8c-0.5-1.9-0.2-3.8,0.7-5.4c-0.3-0.6-0.7-1.1-1-1.5
					C73.3,17,72.8,19.7,73.5,22.3z"/>
			</g>
			<g>
				<path class="st2" d="M80.1,12.5c4.1-1.6,9,0.1,10.8,6.1c0.1,0.5,0.3,0.9,0.4,1.4l1.7-0.5c-0.1-0.5-0.8-2.7-1-3.2
					c-1.9-4.9-7.5-7.4-12.5-5.4c-1.3,0.5-2.5,1.3-3.4,2.2c0.4,0.4,0.8,0.9,1.1,1.4C78,13.6,79,12.9,80.1,12.5z"/>
			</g>
			<g>
				<path class="st3" d="M76.8,18.7c0.1,0.5,0.3,0.9,0.4,1.4l1.7-0.5c-0.1-0.5-0.8-2.7-1-3.2c-0.2-0.6-0.5-1.1-0.8-1.6
					c-0.5,0.5-0.9,1.1-1.2,1.6C76.3,17,76.6,17.8,76.8,18.7z"/>
			</g>
			<g>
				<path class="st3" d="M65.4,10.9c-4.7,1.8-7.2,6.7-6,11.4l1.8,6l1.7,0l-2-6.4C60,18,62.2,14,66,12.5c2.9-1.1,6.3-0.6,8.6,2
					c0.3-0.5,0.7-1,1.2-1.5C73.2,10.4,69.1,9.4,65.4,10.9z"/>
			</g>
			<g>
				<path class="st3" d="M75.8,13.1c-0.4,0.4-0.8,0.9-1.2,1.5c0,0.1,0.1,0.1,0.1,0.2c0.3-0.5,0.7-1,1.2-1.5
					C75.9,13.2,75.8,13.1,75.8,13.1z"/>
			</g>
			<g>
				<path class="st3" d="M75.9,16.4c0.3-0.6,0.7-1.1,1.2-1.6c0-0.1-0.1-0.1-0.1-0.2c-0.5,0.5-0.9,1-1.2,1.6
					C75.8,16.2,75.9,16.3,75.9,16.4z"/>
			</g>
			<g>
				<path class="st3" d="M74.8,14.7c0.4,0.4,0.7,0.9,1,1.5c0.3-0.6,0.7-1.1,1.2-1.6c-0.3-0.5-0.7-0.9-1.1-1.4
					C75.5,13.7,75.1,14.2,74.8,14.7z"/>
			</g>
		</g>
	</g>
</g>
</svg>
