<?xml version="1.0" encoding="utf-8"?>
<!-- Generator: Adobe Illustrator 24.0.0, SVG Export Plug-In . SVG Version: 6.00 Build 0)  -->
<svg version="1.1" id="Layer_1" xmlns="http://www.w3.org/2000/svg" xmlns:xlink="http://www.w3.org/1999/xlink" x="0px" y="0px"
	 viewBox="0 0 400 400" style="enable-background:new 0 0 400 400;" xml:space="preserve">
<style type="text/css">
	.st0{display:none;fill:none;stroke:#B2A1A1;stroke-miterlimit:10;}
	.st1{fill:none;stroke:#B2A1A1;stroke-miterlimit:10;}
	.st2{fill:none;}
	.st3{fill:#EC0089;}
	.st4{fill:#04A7A0;}
</style>
<image style="overflow:visible;" width="1080" height="1350" xlink:href="AjzFlw8.jpg"  transform="matrix(1 0 0 1 -1137.5494 -358.0342)">
</image>
<circle class="st0" cx="-613" cy="-4" r="44.5"/>
<circle class="st0" cx="-613" cy="-4" r="34.5"/>
<path class="st0" d="M-713.4-37.5h-32.1v0c0-5,4-9,9-9h14.1C-717.4-46.5-713.4-42.5-713.4-37.5L-713.4-37.5z"/>
<rect x="-834" y="-57.5" class="st0" width="38.5" height="10"/>
<rect x="-698.5" y="-45.7" class="st0" width="27.6" height="10"/>
<rect x="-729.1" y="-10.9" transform="matrix(-1.836970e-16 1 -1 -1.836970e-16 -699.4258 687.5851)" class="st0" width="71.2" height="10"/>
<rect x="-779.6" y="196.8" transform="matrix(-1.836970e-16 1 -1 -1.836970e-16 -538.6622 942.3378)" class="st0" width="78.2" height="10"/>
<rect x="-613.6" y="194.8" transform="matrix(-1.836970e-16 1 -1 -1.836970e-16 -371.8517 771.533)" class="st0" width="83.8" height="10"/>
<rect x="-539.5" y="-13" transform="matrix(-1.836970e-16 1 -1 -1.836970e-16 -509.8681 493.8681)" class="st0" width="75.4" height="10"/>
<rect x="-698.5" y="-9.6" class="st0" width="27.6" height="10"/>
<rect x="-698.5" y="28.4" class="st0" width="27.6" height="10"/>
<rect x="-707.3" y="157.6" class="st0" width="27.6" height="10"/>
<rect x="-737.9" y="192.4" transform="matrix(-1.836970e-16 1 -1 -1.836970e-16 -504.9118 899.6707)" class="st0" width="71.2" height="10"/>
<rect x="-707.3" y="193.7" class="st0" width="27.6" height="10"/>
<rect x="-707.3" y="231.7" class="st0" width="27.6" height="10"/>
<rect x="-745.5" y="158.3" class="st0" width="25.4" height="8.8"/>
<rect x="-644.9" y="197.3" transform="matrix(-1.836970e-16 1 -1 -1.836970e-16 -403.2129 807.7253)" class="st0" width="78.9" height="10"/>
<rect x="-622.8" y="158.3" class="st0" width="34.6" height="8.8"/>
<rect x="-498.1" y="194.9" transform="matrix(-1.836970e-16 1 -1 -1.836970e-16 -256.4066 656.2527)" class="st0" width="83.6" height="10"/>
<rect x="-461.3" y="232.9" class="st1" width="26" height="8.8"/>
<rect x="-745.5" y="195.2" class="st1" width="25.4" height="8.8"/>
<rect x="-746.5" y="335.2" class="st1" width="33.3" height="8.8"/>
<rect x="-750.3" y="277.5" transform="matrix(-1.836970e-16 1 -1 -1.836970e-16 -459.1932 1023.0699)" class="st1" width="18.3" height="8.8"/>
<path class="st1" d="M-736.9,327.3v11.5h-9.7v-13.4c0-2.7,0.9-5.3,2.5-7.3l18.6-23.7c1.6-2,2.5-4.5,2.5-7.1v-14.3h8.8v17.4
	c0,2.6-0.9,5.1-2.4,7.1l-17.8,22.7C-736,322-736.9,324.6-736.9,327.3z"/>
<rect x="-506.9" y="28.4" class="st1" width="25.4" height="10"/>
<rect x="-723.4" y="-37.5" class="st1" width="10" height="22"/>
<path class="st1" d="M-713.4,28.9h-32.1v0c0,5,4,9,9,9h14.1C-717.4,37.9-713.4,33.9-713.4,28.9L-713.4,28.9z"/>
<rect x="-745.5" y="6.9" class="st1" width="10" height="22"/>
<path class="st1" d="M-723.4,8.1v20.8h10V4.9c0-2.9-1.4-5.7-3.8-7.4L-733.4-14c-1.3-0.9-2.1-2.4-2.1-4v-19.5h-10v22.4
	c0,2.4,1.1,4.6,3,6.1l17.4,13.5C-724,5.4-723.4,6.7-723.4,8.1z"/>
<path class="st1" d="M-633.3,166.7h-32.1l0,0c0-5,4-9,9-9h14.1C-637.4,157.7-633.3,161.8-633.3,166.7L-633.3,166.7z"/>
<rect x="-643.3" y="166.7" class="st1" width="10" height="22"/>
<path class="st1" d="M-633.3,233.1h-32.1l0,0c0,5,4,9,9,9h14.1C-637.4,242.1-633.3,238.1-633.3,233.1L-633.3,233.1z"/>
<rect x="-665.4" y="211.1" class="st1" width="10" height="22"/>
<path class="st1" d="M-643.3,212.3v20.8h10v-23.9c0-2.9-1.4-5.7-3.8-7.4l-16.2-11.6c-1.3-0.9-2.1-2.4-2.1-4v-19.5h-10v22.4
	c0,2.4,1.1,4.6,3,6.1l17.4,13.5C-644,209.6-643.3,210.9-643.3,212.3z"/>
<path class="st1" d="M-736.5,56.3v49.6v21.6v1.5c0,1.1-0.9,2-2,2h-9.5v9h9.5c6.6,0,12-5.4,12-12v-0.5v-21.6V56.3H-736.5z"/>
<path class="st1" d="M-531-45.7V4.9v17.8v4.5c0,1.1-0.9,2-2,2h-10.6c-1.1,0-2-0.9-2-2V4.9h-0.1v-50.5h-10v69.2h0.1v2.6
	c0,6.6,5.4,12,12,12h10.6c6.6,0,12-5.4,12-12v-3.5V4.9v-50.5H-531z"/>
<path class="st1" d="M-701.8,56.3l-13.4,83.7h8.8l2.2-14.1h16.1l2.2,14.1h8.8l-13.4-83.7H-701.8z M-702.7,117.2l6.7-41.9l6.7,41.9
	H-702.7z"/>
<path class="st1" d="M-497.7,158.1l-13.4,83.7h8.8l2.2-14.1h16.1l2.2,14.1h8.8l-13.4-83.7H-497.7z M-498.7,219l6.7-41.9l6.7,41.9
	H-498.7z"/>
<polygon class="st1" points="-637.1,56.3 -666.3,56.3 -666.3,65.3 -646.8,65.3 -666.3,130.9 -666.3,140 -637.1,140 -637.1,130.9 
	-657.5,130.9 -637.1,65.3 "/>
<polygon class="st1" points="-597.5,56.3 -626.7,56.3 -626.7,65.3 -607.3,65.3 -626.7,130.9 -626.7,140 -597.5,140 -597.5,130.9 
	-617.9,130.9 -597.5,65.3 "/>
<g>
	<polyline class="st2" points="-542.3,180.6 -535.6,222.5 -529,180.6 	"/>
	<path class="st2" d="M-536.8,187.5"/>
	<polygon class="st1" points="-535.6,222.5 -545.9,157.8 -554.7,157.8 -541.4,241.5 -529.9,241.5 -516.5,157.8 -525.4,157.8 	"/>
</g>
<path class="st1" d="M-654.4,257.6c-24.6,0-44.5,19.9-44.5,44.5s19.9,44.5,44.5,44.5c24.6,0,44.5-19.9,44.5-44.5
	S-629.9,257.6-654.4,257.6z M-654.4,336.6c-19,0-34.5-15.5-34.5-34.5s15.5-34.5,34.5-34.5s34.5,15.5,34.5,34.5
	S-635.4,336.6-654.4,336.6z"/>
<g>
	<path class="st2" d="M-726.2,268.8h-7.3c-1.9,0-3.4,1.5-3.4,3.4v8.9h14.1v-8.9C-722.8,270.4-724.3,268.8-726.2,268.8z"/>
	<path class="st1" d="M-736.9,272.2c0-1.9,1.5-3.4,3.4-3.4h7.3c1.9,0,3.4,1.5,3.4,3.4v8.9h8.7v-9.7c0-6.6-5.4-12-12-12h-7.4
		c-6.6,0-12,5.4-12,12v9.7h8.7V272.2z"/>
</g>
<rect x="-598.3" y="335.2" class="st1" width="33.3" height="8.8"/>
<rect x="-602" y="277.5" transform="matrix(-1.836970e-16 1 -1 -1.836970e-16 -310.9251 874.8018)" class="st1" width="18.3" height="8.8"/>
<path class="st1" d="M-588.6,327.3v11.5h-9.7v-13.4c0-2.7,0.9-5.3,2.5-7.3l18.6-23.7c1.6-2,2.5-4.5,2.5-7.1v-14.3h8.8v17.4
	c0,2.6-0.9,5.1-2.4,7.1l-17.8,22.7C-587.7,322-588.6,324.6-588.6,327.3z"/>
<path class="st1" d="M-506.2,257.6c-24.6,0-44.5,19.9-44.5,44.5s19.9,44.5,44.5,44.5c24.6,0,44.5-19.9,44.5-44.5
	S-481.6,257.6-506.2,257.6z M-506.2,336.6c-19,0-34.5-15.5-34.5-34.5s15.5-34.5,34.5-34.5c19,0,34.5,15.5,34.5,34.5
	S-487.1,336.6-506.2,336.6z"/>
<g>
	<path class="st2" d="M-577.9,268.8h-7.3c-1.9,0-3.4,1.5-3.4,3.4v8.9h14.1v-8.9C-574.5,270.4-576.1,268.8-577.9,268.8z"/>
	<path class="st1" d="M-588.6,272.2c0-1.9,1.5-3.4,3.4-3.4h7.3c1.9,0,3.4,1.5,3.4,3.4v8.9h8.7v-9.7c0-6.6-5.4-12-12-12h-7.4
		c-6.6,0-12,5.4-12,12v9.7h8.7V272.2z"/>
</g>
<g>
	<path class="st3" d="M262,12.7c-23.1,0-41.9,18.7-41.9,41.9s18.7,41.9,41.9,41.9s41.9-18.7,41.9-41.9S285.1,12.7,262,12.7z M262,87
		c-17.9,0-32.5-14.6-32.5-32.5s14.6-32.5,32.5-32.5s32.5,14.6,32.5,32.5S279.9,87,262,87z"/>
	<polygon class="st3" points="207.5,24.7 207.5,15.3 181.5,15.3 181.5,19.3 181.5,24.7 181.5,49.2 181.5,58.6 181.5,85 181.5,86.2 
		181.5,94.4 207.5,94.4 207.5,85 190.9,85 190.9,58.6 207.5,58.6 207.5,49.2 190.9,49.2 190.9,24.7 	"/>
	<polygon class="st3" points="371.2,85 371.2,15.3 361.8,15.3 361.8,85 361.8,86.2 361.8,94.4 385.7,94.4 385.7,85 	"/>
	<path class="st3" d="M167.5,43.7V23c0-4.7-3.8-8.5-8.5-8.5h-13.3c-4.7,0-8.5,3.8-8.5,8.5v21.1c0,2.2,1,4.3,2.8,5.7l16.4,12.7
		c1,0.8,1.7,2.1,1.7,3.4v17.1c0,1.3-1.1,2.4-2.4,2.4h-6.6c-1.3,0-2.4-1.1-2.4-2.4V64.8h-9.4v20.7c0,4.7,3.8,8.5,8.5,8.5h13.3
		c4.7,0,8.5-3.8,8.5-8.5V63c0-2.8-1.3-5.4-3.6-7l-15.3-10.9c-1.2-0.9-1.9-2.3-1.9-3.8V25.4c0-1.3,1.1-2.4,2.4-2.4h6.6
		c1.3,0,2.4,1.1,2.4,2.4v18.3H167.5z"/>
	<path class="st3" d="M339.1,15.3v47.5v16.7v4.2c0,1-0.9,1.9-1.9,1.9h-10c-1,0-1.9-0.9-1.9-1.9v-21l-0.1-47.5h-9.4l0.1,65.1v2.5
		c0,6.2,5.1,11.3,11.3,11.3h10c6.2,0,11.3-5.1,11.3-11.3v-3.3V62.9V15.3H339.1z"/>
</g>
<g>
	<path class="st4" d="M255,111.2v46.6v20.3v1.4c0,1-0.9,1.9-1.9,1.9h-8.9v8.5h8.9c6.2,0,11.3-5.1,11.3-11.3v-0.5v-20.3v-46.6H255z"
		/>
	<path class="st4" d="M287.7,111.2L275.1,190h8.3l2.1-13.3h15.1l2.1,13.3h8.3l-12.6-78.7H287.7z M286.8,168.5l6.3-39.4l6.3,39.4
		H286.8z"/>
	<polygon class="st4" points="348.5,111.2 321.1,111.2 321.1,119.7 339.4,119.7 321.1,181.5 321.1,190 348.5,190 348.5,181.5 
		329.3,181.5 348.5,119.7 	"/>
	<polygon class="st4" points="385.7,111.2 358.3,111.2 358.3,119.7 376.6,119.7 358.3,181.5 358.3,190 385.7,190 385.7,181.5 
		366.5,181.5 385.7,119.7 	"/>
</g>
<g>
	
		<rect x="218" y="241.6" transform="matrix(-1.836970e-16 1 -1 -1.836970e-16 503.7033 -11.1103)" class="st3" width="78.8" height="9.4"/>
	<polygon class="st3" points="155.8,216 155.8,206.6 129.9,206.6 129.9,210.5 129.9,216 129.9,240.5 129.9,249.9 129.9,276.3 
		129.9,277.5 129.9,285.7 155.8,285.7 155.8,276.3 139.3,276.3 139.3,249.9 155.8,249.9 155.8,240.5 139.3,240.5 139.3,216 	"/>
	<polygon class="st3" points="241.9,207.2 209.4,207.2 209.4,215.5 220.9,215.5 220.9,285.7 230.3,285.7 230.3,215.5 241.9,215.5 	
		"/>
	<polygon class="st3" points="370.6,277.4 370.6,207.1 361.2,207.1 361.2,277.4 361.2,285.7 370.6,285.7 385.7,285.7 385.7,277.4 	
		"/>
	<polygon class="st3" points="117.8,215.5 117.8,207.2 93.9,207.2 93.9,211.4 93.9,215.5 93.9,242 93.9,250.3 93.9,285 103.3,285 
		103.3,250.3 117.8,250.3 117.8,242 103.3,242 103.3,215.5 	"/>
	<path class="st3" d="M198.6,235.7V215c0-4.7-3.8-8.5-8.5-8.5h-13.3c-4.7,0-8.5,3.8-8.5,8.5v21.1c0,2.2,1,4.3,2.8,5.7l16.4,12.7
		c1,0.8,1.7,2.1,1.7,3.4v17.1c0,1.3-1.1,2.4-2.4,2.4h-6.6c-1.3,0-2.4-1.1-2.4-2.4v-18.3h-9.4v20.7c0,4.7,3.8,8.5,8.5,8.5h13.3
		c4.7,0,8.5-3.8,8.5-8.5V255c0-2.8-1.3-5.4-3.6-7l-15.3-10.9c-1.2-0.9-1.9-2.3-1.9-3.8v-15.9c0-1.3,1.1-2.4,2.4-2.4h6.6
		c1.3,0,2.4,1.1,2.4,2.4v18.3H198.6z"/>
	<path class="st3" d="M327,207l-12.6,78.7h8.3l2.1-13.3h15.1l2.1,13.3h8.3L337.8,207H327z M326.1,264.3l6.3-39.4l6.3,39.4H326.1z"/>
	<g>
		<path class="st3" d="M290.2,234.7"/>
		<polygon class="st3" points="291.3,267.6 281.7,206.8 273.4,206.8 285.9,285.5 296.7,285.5 309.3,206.8 301,206.8 		"/>
	</g>
</g>
<g>
	<path class="st4" d="M204.4,300.6c-23.1,0-41.9,18.7-41.9,41.9s18.7,41.9,41.9,41.9c23.1,0,41.9-18.7,41.9-41.9
		S227.5,300.6,204.4,300.6z M204.4,374.9c-17.9,0-32.5-14.6-32.5-32.5s14.6-32.5,32.5-32.5s32.5,14.6,32.5,32.5
		S222.3,374.9,204.4,374.9z"/>
	<g>
		<path class="st4" d="M126.9,373.6v-7.4c0-2.5,0.8-4.9,2.4-6.9l16.7-21.4c1.5-1.9,2.3-4.2,2.3-6.7v-8.5h0v-9.1
			c0-6.2-5.1-11.3-11.3-11.3h-7c-6.2,0-11.3,5.1-11.3,11.3v1.3v7.8v9.4h8.3l-0.1-17.2v-0.5c0-1.7,1.4-3.2,3.2-3.2h6.9
			c1.7,0,3.2,1.4,3.2,3.2v0.5l-0.1,13.5c0,2.4-0.8,4.8-2.3,6.7l-17.5,22.3c-1.5,2-2.4,4.4-2.4,6.9v9.3v3.3v5h31.4v-8.3H126.9z"/>
	</g>
	<g>
		<path class="st4" d="M267,373.6v-7.4c0-2.5,0.8-4.9,2.4-6.9l16.7-21.4c1.5-1.9,2.3-4.2,2.3-6.7v-8.5h0v-9.1
			c0-6.2-5.1-11.3-11.3-11.3h-7c-6.2,0-11.3,5.1-11.3,11.3v1.3v7.8v9.4h8.3l-0.1-17.2v-0.5c0-1.7,1.4-3.2,3.2-3.2h6.9
			c1.7,0,3.2,1.4,3.2,3.2v0.5l-0.1,13.5c0,2.4-0.8,4.8-2.3,6.7l-17.5,22.3c-1.5,2-2.4,4.4-2.4,6.9v9.3v3.3v5h31.4v-8.3H267z"/>
	</g>
	<path class="st4" d="M343.9,300.6c-23.1,0-41.9,18.7-41.9,41.9s18.7,41.9,41.9,41.9c23.1,0,41.9-18.7,41.9-41.9
		S367,300.6,343.9,300.6z M343.9,374.9c-17.9,0-32.5-14.6-32.5-32.5S326,310,343.9,310c17.9,0,32.5,14.6,32.5,32.5
		S361.8,374.9,343.9,374.9z"/>
</g>
</svg>
